<svg width="1920" height="1428" viewBox="0 0 1920 1428" fill="none" xmlns="http://www.w3.org/2000/svg">
<path d="M696.16 148.621C694.057 153.66 692.802 159.274 691.206 164.651C688.991 172.015 685.892 178.728 683.229 185.762C680.16 193.827 676.29 201.183 672.938 209.012C664.414 228.821 655.889 248.646 647.041 268.168C637.156 289.719 626.423 310.424 615.654 331.07C603.902 352.096 592.503 373.714 578.848 392.314C571.935 401.682 564.73 410.584 557.46 419.369C548.134 431.188 538.571 442.627 528.544 453.212C520.758 461.21 512.625 468.489 504.7 476.2C497.371 483.243 490.136 490.505 482.544 496.973C473.068 504.717 463.79 513.4 454.029 520.324C450.078 523.292 446.433 527.028 442.645 530.376C443.97 528.347 445.296 526.318 446.584 524.23C450.165 519.005 454.084 514.287 457.584 508.936C464.407 498.858 471 488.467 477.636 478.136C495.917 447.252 511.458 413.298 528.125 380.647C534.003 369.377 539.597 357.803 545.529 346.592C553.456 332.405 561.803 318.701 570.437 305.402C578.836 292.661 587.26 279.937 596.079 267.779C605.481 254.852 615.425 242.762 625.003 230.106C629.663 223.841 634.553 217.931 639.283 211.768C642.735 207.16 646.169 202.51 649.787 198.165C660.043 185.931 670.24 173.528 681.008 162.216C683.259 159.874 685.379 157.295 687.63 154.954C690.858 151.766 694.369 148.308 697.55 145.4C697.067 146.457 696.631 147.573 696.16 148.621ZM511.168 490.108C519.303 486.667 527.527 483.665 535.763 480.774C555.079 474.974 574.742 471.457 594.465 470.544C596.385 470.459 598.3 470.425 600.214 470.425C612.597 470.425 624.98 472.091 637.203 474.822C647.277 477.527 657.274 481.112 667.112 485.238C672.113 487.664 677.15 490.158 681.892 493.523C677.603 493.092 673.297 493.312 668.997 493.16C647.901 491.815 626.777 490.547 605.652 491.232C596.262 491.215 586.907 492.45 577.534 493.067C572.616 493.439 567.728 494.394 562.825 495.037C557.995 495.688 553.143 496.026 548.323 496.837C531.412 499.45 514.738 504.455 498.37 511.016C495.868 512.056 493.355 513.011 490.849 514.025C490.157 514.313 489.356 514.516 488.886 515.378C488.532 516.038 488.431 516.976 488.78 517.661C481.771 517.838 474.773 518.828 467.882 520.654C465.072 521.415 462.336 522.573 459.618 523.833C463.783 520.882 467.741 517.382 471.805 514.161C476.304 510.593 480.733 506.856 485.11 503.001C487.055 501.986 489.011 501.014 490.96 500.042C497.67 496.626 504.36 493.101 511.168 490.108ZM653.716 508.75C638.983 514.744 624.008 519.403 609.086 524.306C599.178 527.088 589.181 529.117 579.29 532.025C573.876 533.352 568.426 534.333 562.97 535.196C561.637 535.348 560.302 535.314 558.97 535.289C557.343 535.263 555.716 535.229 554.09 535.517C552.257 535.635 550.424 535.542 548.594 535.677C548.502 535.677 548.41 535.686 548.318 535.694C548.171 535.728 548.04 535.28 547.812 535.212C547.624 535.128 547.436 535.094 547.248 535.094C547.118 535.094 546.987 535.111 546.857 535.136C546.572 534.95 546.288 534.756 546.005 534.561C529.691 523.976 511.981 517.864 494.069 517.602C496.05 517.027 498.013 516.274 499.967 515.581C503.828 514.254 507.701 512.986 511.525 511.455C519.818 508.801 528.135 506.29 536.539 504.463C546.118 502.198 555.801 501.208 565.461 499.957C575.031 498.19 584.674 497.776 594.294 496.795C617.587 495.307 640.938 495.789 664.237 496.761C669.285 497.023 674.334 496.525 679.383 496.271C680.095 496.22 680.814 496.195 681.533 496.186C672.537 501.437 663.059 504.954 653.716 508.75ZM557.838 546.871C563.269 551.234 568.936 555.174 573.735 560.906C572.257 559.984 570.784 558.978 569.263 558.243C564.753 556.18 560.111 554.759 555.523 553.102C547.816 550.312 540.107 547.531 532.364 544.961C522.614 541.046 512.669 537.833 502.496 537.732C496.31 537.411 490.141 536.7 483.943 536.886C482.862 536.895 481.783 536.878 480.701 536.87C477.611 536.827 474.52 536.785 471.439 537.233C465.185 538.366 458.919 539.668 452.8 541.883C449.033 543.27 445.347 545.037 441.706 546.99C437.564 549.103 433.337 550.853 429.264 553.246C423.932 556.425 418.575 559.638 413.402 563.349C414.776 561.886 416.062 560.229 417.399 558.699C417.401 558.699 417.401 558.699 417.404 558.699C419.965 556.095 422.6 553.635 425.226 551.192C428.095 548.647 431.008 546.195 433.974 543.895C433.979 543.904 433.986 543.904 433.991 543.904C434.31 543.988 434.563 543.692 434.773 543.379C434.849 543.295 434.923 543.21 434.996 543.117C438.494 540.463 442.069 538.019 445.745 535.897C448.633 534.215 451.59 532.803 454.562 531.467C458.608 529.607 462.582 527.409 466.719 526.005C483.117 521.026 500.236 521.271 516.693 525.566C525.652 528.246 534.368 532.296 542.811 537.326C542.733 537.664 542.715 538.045 542.784 538.442C543.028 540.023 544.268 540.26 545.216 540.285C546.012 540.336 546.808 540.361 547.605 540.378C550.98 542.661 554.51 544.445 557.838 546.871ZM557.541 562.554C548.824 563.053 540.105 562.791 531.388 562.647C516.525 563.163 501.667 563.349 486.804 563.73C483.502 563.679 480.211 563.095 476.909 563.002C475.568 562.96 474.223 562.994 472.88 563.019C471.013 563.07 469.145 563.112 467.281 562.96C464.19 562.783 461.137 562.055 458.058 561.692C454.899 561.311 451.728 561.396 448.566 561.185C443.374 560.863 438.156 560.449 432.966 560.99C429.779 561.362 426.606 561.81 423.614 563.544C422.669 563.983 421.725 564.431 420.786 564.896C419.221 565.125 417.664 565.429 416.113 565.818C414.829 566.021 413.577 566.376 412.348 566.832C413.764 566.004 415.194 565.209 416.582 564.406C422.618 560.83 428.728 557.448 434.946 554.582C440.972 552.189 446.83 548.951 452.919 546.871C457.121 545.392 461.404 544.453 465.696 543.692C469.552 542.788 473.438 542.39 477.335 542.39C478.668 542.39 480.002 542.441 481.337 542.526C486.447 542.703 491.567 542.534 496.664 543.177C500.777 543.506 504.896 543.498 509.005 543.836C515.218 544.665 521.399 546.093 527.426 548.461C540.526 553.051 553.694 557.304 566.734 562.241C563.671 562.436 560.599 562.487 557.541 562.554ZM527.642 575.549C532.367 579.869 537.157 584.054 542.075 587.918C547.344 591.925 552.384 596.525 556.924 602.105C560.696 606.518 564.516 610.864 568.058 615.666C571.608 620.434 574.76 625.769 578.141 630.774C579.166 632.228 580.179 633.708 581.187 635.187C579.944 634.012 578.701 632.845 577.464 631.67C574.218 628.119 570.425 625.87 566.971 622.801C561.916 618.878 557 614.592 552.018 610.483C543.654 603.085 535.468 595.273 527.048 587.994C518.852 581.315 510.45 575.075 501.752 569.842C501.285 569.555 500.813 569.284 500.339 569.022C506.557 568.895 512.772 568.616 518.985 568.278C519.605 569.233 520.739 569.631 521.48 570.341C523.604 571.905 525.656 573.647 527.642 575.549ZM589.734 649.289C581.817 647.184 574.3 642.838 566.711 639.068C561.54 636.405 556.218 634.401 551.082 631.594C546.18 628.973 541.428 625.786 536.688 622.624C530.793 618.084 524.994 613.265 519.19 608.488C515.906 605.283 512.722 601.868 509.369 598.816C507.316 596.753 505.079 595.231 502.751 593.954C500.666 592.45 498.931 590.167 497.07 588.18C494.476 585.508 491.742 583.124 489.245 580.25C485.805 576.699 482.508 572.877 479.261 568.988C481.203 569.115 483.145 569.301 485.087 569.453C488.304 569.622 491.519 569.343 494.734 569.174C496.515 570.341 498.464 571.381 499.177 571.93C508.596 578.204 517.826 585.128 526.768 592.703C535.165 600.059 543.366 607.879 551.77 615.218C556.34 618.768 560.726 622.793 565.342 626.234C568.92 629.379 572.844 631.679 576.173 635.39C580.839 639.719 585.528 644.056 589.734 649.289ZM448.895 566.697C452.356 566.959 455.826 566.984 459.269 567.568C463.482 568.379 467.716 569.005 471.973 568.845C472.864 568.802 473.754 568.785 474.647 568.794C474.873 569.884 475.662 570.595 476.211 571.389C477.947 573.511 479.737 575.524 481.509 577.586C481.564 577.646 481.619 577.713 481.675 577.772C479.491 576.377 477.257 575.135 474.976 574.112C470.774 572.539 466.526 571.186 462.267 569.969C457.839 568.625 453.375 567.602 448.895 566.697ZM527.603 635.872C534.292 648.418 540.727 661.312 546.035 675.177C553.871 696.347 559.516 719.022 564.829 741.697C567.728 753.88 571.078 765.826 574.265 777.857C576.003 783.775 577.858 789.617 579.36 795.679C581.328 802.68 582.565 810.01 584.391 817.061C583.078 814.787 581.882 812.36 580.633 810.001C571.421 793.202 561.619 777.012 553.284 759.257C547.046 746.652 540.764 734.088 534.193 721.838C528.91 712.495 524.006 702.722 518.661 693.439C513.52 684.46 508.03 675.904 502.493 667.424C496.74 658.555 490.913 649.754 484.473 641.909C471.17 626.893 458.513 610.593 444.3 597.302C437.566 591.029 430.925 584.384 423.484 579.911C420.662 578.297 418.046 575.98 415.05 575.05C413.386 574.467 411.665 573.74 409.936 573.486C411.053 573.122 412.173 572.801 413.308 572.59C415.064 572.345 416.817 572.091 418.573 571.854C422.054 571.144 425.543 570.848 429.032 570.848C437.903 570.848 446.776 572.784 455.531 574.78C462.039 576.547 468.604 578.204 474.964 580.858C485.258 586.117 494.648 594.386 503.418 603.643C512.27 613.07 520.373 623.934 527.603 635.872ZM574.901 813.197C569.1 808.835 563.13 804.954 557.46 800.228C553.489 797.108 549.713 793.523 545.833 790.192C538.299 784.097 531.092 777.215 524.105 769.91C509.01 754.751 495.917 736.016 482.471 718.058C479.054 713.67 476.196 708.522 472.979 703.855C465.139 692.441 457.292 681.036 449.785 669.174C443.978 659.976 439.186 649.526 434.236 639.364C431.544 634.113 428.964 628.779 426.707 623.114C422.119 613.366 418.244 602.984 413.97 592.94C412.979 590.767 412.311 588.248 411.432 585.965C410.931 583.183 410.162 580.605 409.041 578.373C408.823 577.933 408.581 577.544 408.321 577.181C409.9 577.789 411.43 578.694 412.949 579.539C416.974 581.484 420.554 584.883 424.461 587.309C441.041 599.864 456.106 616.122 470.374 633.488C476.789 641.283 483.672 648.283 489.577 656.924C498.469 670.011 507.438 683.048 515.789 696.863C521.226 706.044 526.174 715.776 531.43 725.177C535.478 732.363 538.987 740.116 542.903 747.446C547.485 756.053 551.664 765.082 556.303 773.621C560.304 781.044 564.635 788.079 568.731 795.392C570.89 798.841 572.669 802.713 574.618 806.391C575.902 808.572 577.163 810.779 578.294 813.121C578.871 814.271 579.449 815.429 580.032 816.579C578.335 815.421 576.609 814.33 574.901 813.197ZM412.392 690.852C411.591 695.273 411.152 699.813 410.466 704.261C409.743 707.981 409.129 711.751 408.65 715.564C408.643 715.505 408.636 715.454 408.63 715.404C408.399 713.628 408.171 711.87 407.946 710.103C407.778 708.767 407.592 707.431 407.378 706.112C407.097 704.354 406.736 702.637 406.393 700.904C406.25 700.177 406.119 699.45 405.988 698.723C406.687 697.201 407.166 694.783 407.603 693.667C408.919 689.457 410.026 685.12 411.292 680.867C414.498 669.834 417.436 658.648 420.538 647.556C422.158 642.264 423.957 637.089 425.366 631.662C425.529 631.087 425.704 630.52 425.879 629.945C426.42 631.247 426.963 632.541 427.515 633.826C420.556 651.665 416.446 671.356 412.392 690.852ZM410.599 745.865C410.94 747.751 411.283 749.644 411.621 751.538C411.952 753.381 412.302 755.224 412.601 757.084C412.746 757.981 412.903 758.877 413.036 759.781C413.091 760.145 413.14 760.508 413.183 760.88C413.241 761.354 413.402 761.743 413.642 761.996C413.738 762.935 413.841 763.873 413.95 764.82C415.349 778.483 417.908 791.824 419.358 805.47C422.176 830.926 424.477 856.51 426.484 882.118C427.184 890.784 427.775 899.475 428.405 908.158C429.922 925.093 432.205 941.892 433.314 958.902C434.223 972.675 434.759 986.498 435.886 1000.24C437.711 1021.89 439.661 1043.57 440.388 1065.39C440.776 1076.19 440.73 1087.01 440.523 1097.82C440.535 1102.42 440.742 1107.01 440.583 1111.62C440.873 1123.59 442.084 1135.54 441.865 1147.57C441.865 1151.6 441.662 1155.62 441.43 1159.64C441.285 1163.63 441.305 1167.63 441.202 1171.63C441.083 1172.69 440.965 1173.76 440.852 1174.82C439.768 1175.19 439.456 1176.97 439.856 1178.4C440.024 1179.12 440.13 1179.95 440.252 1180.8C439.849 1185.14 439.517 1189.48 439.299 1193.84C438.473 1213.52 438.742 1233.27 437.771 1252.93C437.589 1258.07 437.631 1263.21 437.38 1268.35C437.239 1270.77 437.306 1273.29 436.701 1275.6C435.663 1279.96 432.833 1280.39 431.142 1276.62C430.757 1275.39 430.672 1274.03 430.695 1272.69C430.686 1268.98 430.893 1265.28 430.985 1261.57C431.894 1240.94 433.406 1220.34 433.549 1199.66C433.62 1194.28 434.068 1188.96 434.2 1183.59C434.276 1176.98 434.26 1170.37 434.359 1163.76C434.207 1154.53 434.487 1145.25 433.811 1136.07C435.85 1132.44 435.661 1119.4 435.436 1116.83C435.323 1114.87 435.145 1112.93 434.971 1110.98C435.12 1109.17 434.832 1107.2 434.867 1105.41C434.802 1100.12 434.865 1094.83 434.708 1089.53C434.563 1058.48 431.155 1027.76 428.169 997.083C425.465 972.675 423.035 948.19 422.314 923.469C421.674 908.2 421.1 892.915 419.802 877.73C418.667 861.709 416.905 845.798 415.323 829.852C413.991 817.323 412.787 804.759 411.027 792.34C409.292 778.669 407.684 764.736 404.05 751.783C402.11 745.831 400.492 739.693 398.788 733.606C399.377 733.784 399.972 733.936 400.576 734.012C402.196 734.257 402.99 732.11 403.254 730.14C403.804 727.029 403.945 722.522 401.503 721.051C400.414 720.476 399.319 719.927 398.219 719.411C398.201 719.141 398.182 718.887 398.171 718.65C397.955 710.263 395.782 702.375 394.723 694.191C394.323 690.37 392.901 687.157 391.762 683.75C392.174 683.048 392.588 682.355 393.007 681.653C394.703 678.593 396.068 675.194 397.366 671.761C397.409 672.04 397.45 672.319 397.494 672.598C397.757 674.281 398.081 675.938 398.438 677.578C398.638 678.5 398.868 679.404 399.08 680.309C399.28 681.163 399.45 682.025 399.623 682.888C399.802 683.775 399.968 684.671 400.147 685.568C400.329 686.455 400.511 687.335 400.683 688.231C401.043 690.074 401.393 691.917 401.807 693.743C402.005 694.606 402.209 695.476 402.396 696.347C402.589 697.243 402.757 698.156 402.941 699.061C403.12 699.923 403.286 700.803 403.459 701.673C403.629 702.519 403.82 703.356 404.006 704.193C404.382 705.858 404.685 707.549 404.975 709.249C405.272 710.973 405.495 712.732 405.751 714.482C405.997 716.165 406.243 717.855 406.503 719.546C406.802 721.449 407.127 723.351 407.463 725.245C407.81 727.189 408.132 729.142 408.429 731.112C408.684 732.786 408.905 734.485 409.145 736.168C409.368 737.749 409.587 739.33 409.817 740.911C410.061 742.568 410.307 744.225 410.599 745.865ZM431.843 1123.82C429.761 1118.57 426.659 1114.28 423.99 1109.7C426.229 1111.6 428.458 1114.58 431.192 1114.68C431.406 1114.66 431.62 1114.61 431.83 1114.53C431.972 1117.62 431.984 1120.72 431.843 1123.82ZM394.098 727.79C392.434 726.876 390.619 726.504 389.038 725.312C386.989 723.816 384.739 722.987 382.542 722.074C377.525 719.817 372.345 718.371 367.135 717.374C364.167 717.044 361.193 716.723 358.214 716.714C355.849 716.393 353.486 716.232 351.117 716.232C350.074 716.232 349.03 716.258 347.985 716.325C345.323 716.376 342.69 717.035 340.034 717.289C335.938 717.746 331.81 718.041 327.777 719.225C326.083 719.715 324.458 720.536 322.894 721.559C322.252 721.373 321.598 721.237 320.933 721.17C319.913 721.127 318.857 721.001 317.813 721.026C317.559 720.451 317.182 719.986 316.715 719.766C321.05 716.883 325.99 715.869 330.683 714.896C337.209 712.91 343.917 712.893 350.542 713.763C364.385 714.203 378.268 715.902 391.668 721.178C394.57 722.26 397.446 723.613 400.244 725.152C400.481 725.329 400.458 725.82 400.484 726.149C400.573 727.384 400.474 728.635 400.258 729.844C400.286 730.047 400.147 729.928 400.076 729.928C398.032 729.582 396.068 728.61 394.098 727.79ZM329.176 730.985C333.279 733.336 337.338 735.973 340.753 740.074C346.565 746.609 351.925 753.999 356.817 761.929C360.619 768.016 364.321 774.256 367.533 781.011C372.922 791.579 376.126 803.973 379.64 815.953C381.591 823.993 383.51 832.118 384.912 840.387C385.981 847.945 386.318 855.664 386.041 863.358C385.742 862.478 385.457 861.582 385.208 860.669C383.416 853.872 381.931 846.905 380.04 840.15C377.187 829.041 373.854 818.194 370.271 807.524C368.359 802.265 366.091 797.286 363.941 792.23C359.576 782.254 355.314 772.142 349.973 763.163C346.837 757.279 342.764 752.722 338.889 747.911C336.868 745.493 335.055 742.762 333.101 740.243C330.996 737.656 328.697 735.399 326.522 732.93C325.528 731.873 324.539 730.782 323.531 729.726C322.981 728.922 322.392 728.153 321.759 727.443C321.952 727.325 322.145 727.181 322.334 727.045C324.718 727.882 326.932 729.59 329.176 730.985ZM355.643 813.941C352.242 806.704 349.741 798.731 347.053 790.928C344.552 783.319 341.643 776.014 339.224 768.354C336.643 760.813 334.473 752.933 331.04 746.068C330.138 744.301 329.304 742.441 328.483 740.581C328.218 739.744 327.942 738.916 327.652 738.104C327.703 738.172 327.756 738.231 327.807 738.298C331.002 741.866 333.656 746.229 336.565 750.245C340.513 755.656 344.833 760.551 348.017 767.01C352.334 774.661 355.878 783.124 359.463 791.503C363.064 799.83 366.827 808.091 369.478 817.154C372.932 827.739 375.891 838.637 378.735 849.585C379.649 853.221 380.535 856.89 381.552 860.483C371.222 847.167 362.763 830.994 355.643 813.941ZM339.144 815.53C340.941 828.221 342.03 841.114 342.662 854.024C342.883 866.697 342.235 879.371 341.669 892.01C341.135 902.84 339.961 913.645 337.713 924.027C336.1 931.476 333.681 938.476 331.357 945.493C328.092 955.326 323.745 964.406 320.629 974.332C321.096 970.088 321.43 965.852 321.285 961.464C321.593 940.497 321.253 919.538 319.83 898.664C318.933 881.104 318.834 863.485 318.457 845.891C318.266 817.695 318.694 789.457 317.718 761.286C317.318 751.767 316.202 742.374 315.215 732.964C315.116 732.051 315.079 731.129 315.06 730.207C315.263 729.835 315.465 729.455 315.663 729.075C315.99 729.438 316.34 729.776 316.692 730.089C323.121 735.001 325.517 745.552 327.5 754.937C328.897 760.661 330.004 766.503 331.297 772.269C332.37 777.282 333.755 782.144 334.797 787.166C336.717 796.457 337.858 806.028 339.144 815.53ZM318.464 970.586C318.362 972.489 318.118 974.357 317.893 976.234C314.851 964.271 312.379 952.012 309.563 939.939C305.391 922.32 301.191 904.557 299.196 886.109C296.755 863.814 297.171 841.131 297.898 818.65C298.324 796.347 301.424 774.213 307.119 753.441C308.739 747.108 310.92 741.139 313.022 735.111C313.128 736.971 313.279 738.823 313.39 740.666C314.616 756.171 314.943 771.787 314.812 787.385C315.12 815.192 314.632 843.016 315.564 870.806C315.668 890.175 317.419 909.393 318.139 928.711C318.422 942.661 318.756 956.653 318.464 970.586ZM300.913 744.868C297.586 751.538 293.635 757.44 289.826 763.51C285.695 770.891 281.487 778.17 277.087 785.23C272.754 792.154 269.076 799.83 264.988 807.042C258.94 817.839 252.883 828.627 246.848 839.44C237.455 857.803 227.226 875.253 216.594 892.154C204.028 912.36 190.966 931.907 177.739 951.226C172.063 959.773 166.556 968.566 160.568 976.682C155.846 982.972 151.26 989.491 146.311 995.426C143.906 998.275 141.423 1001 139.113 1004.02C134.427 1010.15 129.899 1016.51 125.329 1022.81C120.694 1029.2 116.041 1035.57 111.658 1042.32C107.536 1048.82 102.955 1054.65 98.3385 1060.41C93.7848 1066.23 89.1504 1071.93 84.4836 1077.57C80.7971 1082.05 77.5364 1087.21 73.7256 1091.48C71.1943 1094.27 68.5157 1096.75 66.0721 1099.7C63.4371 1102.91 60.9841 1106.4 58.4392 1109.75C60.7379 1102.89 63.1726 1096.12 65.6533 1089.39C72.6853 1072.17 80.5349 1055.68 88.5796 1039.41C92.6502 1030.2 96.4446 1020.73 100.575 1011.58C106.084 1000.41 111.179 988.831 116.78 977.756C129.303 952.105 142.127 926.733 156.295 902.874C168.114 882.828 179.682 862.436 192.506 843.667C199.343 833.649 206.4 823.934 213.741 814.677C220.936 805.799 228.586 797.708 236.014 789.245C248.877 775.228 262.134 761.76 276.503 751.09C282.253 746.533 287.896 741.689 293.828 737.622C299.183 733.978 304.556 730.343 310.051 727.155C310.308 727.612 310.573 728.06 310.847 728.5C307.565 733.995 304.15 739.33 300.913 744.868ZM62.5605 1076.01C64.8821 1062.78 65.7776 1049.17 67.6391 1035.8C70.7754 1012.1 76.4384 989.338 82.9785 967.162C92.3557 936.362 102.833 905.859 117.362 879.311C121.343 871.981 125.736 865.15 130.106 858.293C136.591 847.691 143.158 837.208 150.432 827.688C156.781 819.014 164.043 811.912 170.99 804.294C177.339 797.336 183.932 790.835 190.904 785.23C197.78 779.59 204.401 773.249 211.649 768.608C215.842 765.818 220.216 763.62 224.49 761.1C228.88 758.463 233.273 755.842 237.73 753.441C245.32 749.281 253.003 745.502 260.77 742.103C262.981 741.258 265.181 740.37 267.355 739.347C268.411 738.797 269.475 738.265 270.54 737.757C270.547 737.757 270.554 737.757 270.561 737.749C271.877 737.157 273.198 736.574 274.521 736.007C274.551 735.99 274.581 735.982 274.613 735.965C276.516 735.196 278.438 734.519 280.38 733.961C283.77 733.014 287.106 731.78 290.392 730.317C295.648 728.762 300.938 727.468 306.206 726.006C306.675 725.862 307.147 725.71 307.616 725.549C307.664 725.566 307.713 725.591 307.763 725.608C306.523 726.234 305.345 726.851 304.413 727.341C295.92 732.11 287.612 737.571 279.673 744.022C274.102 748.495 268.345 752.477 262.889 757.237C252.241 766.739 241.912 777.012 232.019 788.079C226.024 794.817 219.95 801.411 214.068 808.353C207.956 815.793 202.132 823.706 196.427 831.78C185.407 847.336 175.278 864.093 165.304 881.019C156.994 895.417 148.338 909.426 140.201 924.044C129.119 944.386 118.68 965.438 108.346 986.574C104.862 994.2 101.215 1001.66 97.6021 1009.15C94.2631 1016.35 91.3778 1023.95 88.0753 1031.19C84.0989 1040.94 79.1588 1049.79 74.8531 1059.24C70.6441 1068.52 66.3849 1077.77 62.544 1087.39C60.9841 1091.8 59.4124 1096.21 57.8937 1100.65C59.5114 1092.47 61.2327 1084.32 62.5605 1076.01ZM230.473 746.136C212.763 750.887 194.736 752.84 176.729 752.587C171.584 752.62 166.425 752.519 161.314 751.555C156.155 750.6 151.051 749.163 145.894 748.19C134.481 746.11 123.318 743.101 111.876 741.672C118.398 738.535 124.836 734.874 131.652 733.276C139.048 730.884 146.418 728.305 153.849 726.132C160.792 724.196 167.819 722.987 174.806 721.415C184.645 719.631 194.573 719.073 204.449 717.822C224.011 715.277 243.64 713.121 263.294 714.347C271.974 714.989 280.557 717.23 289.138 719.115C293.05 719.952 296.895 721.17 300.699 722.725C301.196 722.928 301.693 723.14 302.192 723.342C293.798 724.932 285.431 726.86 277.237 729.971C269.555 733.065 261.902 736.32 254.283 739.736C253.781 739.896 253.277 740.057 252.773 740.209C245.441 742.948 237.935 744.36 230.473 746.136ZM122.798 727.975C128.235 723.283 133.648 718.498 139.354 714.491C148.094 707.921 157.681 704.447 166.901 699.611C174.127 696.136 181.09 691.427 188.541 688.992C195.856 686.548 203.342 685.821 210.814 685.077C215.338 684.384 219.877 684.122 224.42 684.122C227.405 684.122 230.392 684.232 233.377 684.409C241.978 684.367 250.555 685.787 258.991 688.163C265.885 689.82 272.74 691.951 279.278 695.485C280.53 696.542 281.781 697.607 283.026 698.681C286.911 702.181 290.578 706.137 294.44 709.688C297.579 712.394 300.834 714.77 303.858 717.737C304.178 718.008 304.496 718.278 304.813 718.557C304.866 718.616 304.917 718.692 304.968 718.752C301.465 717.196 297.956 715.615 294.364 714.533C283.535 711.878 272.735 708.361 261.74 707.541C242.222 706.121 222.741 708.691 203.324 711.278C193.535 712.546 183.693 713.205 173.956 715.167C166.782 716.909 159.556 718.27 152.454 720.586C145.056 722.962 137.775 725.997 130.458 728.821C123.331 731.188 116.485 735.17 109.805 739.431C114.048 735.415 118.352 731.526 122.798 727.975ZM254.644 665.158C249.402 659.57 244.954 652.688 240.485 645.908C237.105 640.911 233.763 635.864 230.358 630.901C227.976 627.578 225.818 623.976 223.868 620.121C226.443 621.372 228.977 622.801 231.372 624.627C235.213 627.832 239.297 630.368 243.168 633.479C245.899 635.771 248.594 638.155 251.248 640.607C255.097 644.335 258.413 649.027 262.051 653.145C264.495 655.799 266.992 658.361 269.194 661.438C274.769 668.574 280.828 674.864 286.269 682.228C290.878 688.248 295.087 694.834 298.925 701.868C296.66 699.644 294.219 697.818 291.86 695.798C286.874 691.029 281.112 688.273 275.446 685.644C274.767 685.339 274.086 685.052 273.403 684.79C272.415 683.894 271.438 682.981 270.473 682.042C264.927 676.944 259.93 670.764 254.644 665.158ZM242.413 624.103C251.588 627.916 260.921 631.425 269.581 637.292C272.404 639.406 275.211 641.553 277.879 644.056C283.235 649.129 287.92 655.588 292.327 662.25C299.229 674.23 304.983 687.817 308.246 702.696C309.264 706.67 310.053 710.737 310.653 714.871C309.662 713.112 308.557 711.464 307.641 709.629C304.726 704.362 302.167 698.706 299.065 693.659C295.257 686.506 290.544 680.503 285.944 674.433C281.484 668.363 276.521 663.138 272.001 657.169C269.723 653.965 267.157 651.251 264.601 648.537C260.933 644.504 257.568 639.896 253.682 636.295C247.059 630.098 239.82 625.583 232.67 620.831C232.27 620.552 231.469 620.07 230.45 619.512C234.479 620.806 238.471 622.353 242.413 624.103ZM412.263 594.952C415.045 602.722 417.967 610.382 420.869 618.058C422.234 621.119 423.522 624.247 424.811 627.367C424.774 627.443 424.737 627.519 424.705 627.595C421.486 632.811 419.381 639.228 417.305 645.468C413.653 658.395 410.558 671.643 407.382 684.815C406.593 688.07 405.946 691.393 405.235 694.682C404.922 693.177 404.577 691.689 404.299 690.167C403.972 688.358 403.671 686.54 403.3 684.748C403.113 683.843 402.941 682.93 402.764 682.025C402.603 681.188 402.414 680.36 402.226 679.54C402.007 678.567 401.74 677.629 401.484 676.673C401.261 675.836 401.033 674.999 400.81 674.162C400.385 672.539 399.986 670.907 399.535 669.31C399.411 668.853 399.294 668.405 399.183 667.948C399.135 667.746 399.089 667.526 399.038 667.323C400.343 663.907 401.641 660.5 402.722 656.924C404.71 649.974 406.358 642.83 408.117 635.754C409.681 628.77 410.438 621.465 411.312 614.254C411.768 608.555 412.413 601.614 412.263 594.952ZM390.393 678.61C388.311 682.583 385.94 686.261 384.136 690.53C384.159 686.371 384.919 680.706 385.236 676.031C386.094 666.131 387.162 656.264 387.848 646.339C388.347 638.823 389.523 631.459 390.483 624.044C391.815 614.186 394.086 604.658 396.15 595.079C397.54 589.034 399.024 582.972 401.135 577.35C401.139 577.333 401.155 577.291 401.172 577.24C401.289 577.392 401.429 577.51 401.583 577.586C401.793 577.891 402.025 578.17 402.283 578.407C403.118 579.201 404.101 579.658 404.874 580.588C405.613 581.645 406.2 582.938 406.586 584.325C408.19 589.93 408.227 595.992 408.068 601.952C407.843 612.85 406.644 623.79 404.529 634.257C402.409 642.433 400.682 650.862 398.056 658.75C395.522 665.378 393.481 672.455 390.393 678.61ZM381.333 695.265C380.793 685.796 378.788 676.673 377.583 667.365C376.982 662.656 376.715 657.896 376.321 653.145C375.893 648.131 375.691 643.084 375.719 638.036C375.799 629.37 375.59 620.645 376.335 612.039C377.322 603.271 379.345 594.589 382.523 586.954C385.473 580.461 390.632 576.175 395.955 575.202C396.72 575.076 397.602 575.033 398.433 575.033C398.728 575.033 399.017 575.033 399.291 575.05C399.326 575.202 399.367 575.346 399.413 575.49C399.248 575.828 399.08 576.175 398.94 576.53C396.275 582.887 394.471 589.888 392.752 596.854C390.597 605.943 388.398 615.048 387.1 624.484C385.66 634.02 384.702 643.633 384.175 653.347C382.916 667.272 382.065 681.273 381.333 695.265ZM364.45 594.496C358.879 596.888 353.227 598.934 347.453 600.033C344.179 600.295 340.953 601.276 337.674 601.335C332.839 601.242 328.011 601.572 323.181 601.809C324.355 600.887 325.496 599.864 326.748 599.162C332.584 595.392 338.518 591.959 344.326 588.121C348.944 585.322 353.494 582.304 358.267 580.064C363.539 577.925 368.772 575.405 374.188 574.146C378.185 573.368 382.224 573.165 386.26 573.165C387.808 573.165 389.355 573.19 390.899 573.232C391.051 573.241 391.201 573.258 391.353 573.275C388.331 574.551 385.48 576.733 383.117 579.506C381.133 581.915 379.488 585.094 378.119 588.628C377.852 588.755 377.587 588.915 377.332 589.042C373.185 591.452 368.79 592.948 364.45 594.496ZM330.436 592.111C333.704 589.068 336.753 585.551 340.129 582.752C350.137 574.484 361.104 568.413 372.647 566.689C374.645 566.452 376.668 566.291 378.689 566.291C380.326 566.291 381.963 566.393 383.584 566.663C383.835 567.111 384.147 567.458 384.576 567.568C385.008 567.669 385.439 567.483 385.765 567.111C386.564 567.314 387.36 567.568 388.147 567.864C389.413 568.371 390.635 569.056 391.859 569.732C384.698 569.496 377.435 569.512 370.392 571.516C364.494 573.528 358.596 575.718 352.965 578.99C347.562 581.924 342.469 585.906 337.154 589.118C333.338 591.427 329.696 594.301 326.014 597.007C325.793 597.176 325.574 597.353 325.36 597.531C327.024 595.671 328.688 593.802 330.436 592.111ZM372.223 546.017C368.746 543.371 365.315 540.522 361.518 538.907C359.238 537.926 356.884 537.402 354.585 536.523C354.368 536.421 354.101 536.312 353.809 536.21C353.915 535.787 354.017 535.382 354.118 535.001C357.353 530.74 361.132 527.409 364.68 523.697C370.309 518.405 375.237 511.7 379.189 503.872C383.745 495.434 387.42 486.109 390.894 476.69C391.035 476.327 391.173 475.963 391.311 475.591C391.438 475.786 391.567 475.98 391.696 476.174C392.542 477.451 393.423 478.686 394.332 479.878C395.363 481.23 396.429 482.532 397.496 483.826C398.049 484.494 398.606 485.162 399.172 485.804C399.8 486.523 400.469 487.157 401.155 487.757C402.462 488.899 403.801 489.964 405.169 490.961C405.785 491.41 406.418 491.815 407.04 492.255C407.652 492.695 408.27 493.117 408.901 493.498C410.083 494.216 411.281 494.884 412.447 495.654C413.768 496.533 415.095 497.387 416.451 498.148C417.73 498.866 419.047 499.408 420.363 499.966C420.94 500.211 421.516 500.473 422.091 500.735C418.439 506.188 415.171 512.165 412.017 518.21C409.366 523.41 406.848 528.779 404.902 534.595C402.998 540.158 401.183 545.882 400.253 551.961C399.655 556.027 399.636 560.212 399.356 564.347C399.326 565.776 399.004 568.743 398.994 571.432C398.872 571.296 398.743 571.186 398.61 571.093C397.465 569.758 396.286 568.498 394.891 567.745C391.925 565.463 388.805 563.958 385.602 563.07C384.578 560.711 383.284 558.615 381.953 556.602C379.147 552.333 375.818 548.799 372.223 546.017ZM353.142 514.22C352.222 518.219 351.283 522.201 351.096 526.42C349.762 518.591 348.052 510.914 346.494 503.17C344.844 494.293 342.999 485.483 340.226 477.172C337.908 468.084 335.26 459.164 332.602 450.27C330.405 444.174 329.328 437.461 327.461 431.18C324.656 422.979 322.826 414.211 320.296 405.841C318.369 399.56 316.107 393.447 314.883 386.776C313.794 380.951 313.015 375.008 311.735 369.267C310.886 365.539 309.848 361.895 308.96 358.183C309.05 357.532 309.137 356.881 309.225 356.23C313.245 364.068 316.269 373.004 321.188 379.861C325.827 386.641 330.782 392.991 335.011 400.329C338.134 405.681 340.863 411.472 343.588 417.246C346.687 423.689 348.827 430.968 350.85 438.205C352.808 447.057 354.272 456.188 355.218 465.37C355.618 471.144 355.592 476.952 355.48 482.752C355.429 490.141 355.227 497.548 354.38 504.852C354.014 507.363 353.74 509.9 353.476 512.436C353.367 513.036 353.257 513.628 353.142 514.22ZM347.403 524.737C346.415 522.649 345.677 520.358 344.989 518.016C342.446 510.289 337.653 504.852 334.307 497.903C332.25 493.98 330.436 489.82 328.603 485.677C325.82 479.709 322.58 474.188 320.065 467.957C315.838 457.592 313.167 446.178 311.003 434.637C308.953 425.135 307.577 415.387 307.032 405.461C306.719 398.232 306.097 391.004 306.231 383.75C306.422 377.57 307.147 371.465 307.966 365.395C308.297 367.103 308.636 368.811 308.911 370.51C310.191 377.341 310.812 384.392 312.207 391.173C313.608 397.92 315.891 404.184 317.727 410.694C318.977 415.023 319.916 419.521 321.149 423.858C323.094 430.478 325.321 436.92 326.757 443.828C327.827 448.046 329.311 452.011 330.591 456.095C332.475 462.791 334.772 469.25 336.528 476.022C338.408 482.676 340.778 489.076 342.092 496.051C343.719 504.903 345.995 513.484 347.566 522.345C347.78 523.52 347.994 524.695 348.208 525.87C347.959 525.464 347.693 525.084 347.403 524.737ZM346.199 540.725C346.183 540.691 346.163 540.666 346.142 540.632C346.209 540.632 346.273 540.615 346.338 540.615C346.291 540.649 346.245 540.691 346.199 540.725ZM337.87 526.935C337.034 526.437 336.199 525.929 335.366 525.422C332.936 523.579 330.382 522.066 327.765 520.806C325.294 519.352 322.803 517.965 320.272 516.739C299.302 507.372 277.448 504.624 255.679 501.876C249.544 500.836 243.467 499.205 237.344 498.072C230.307 497.159 223.32 495.654 216.304 494.504C213.821 494.031 211.385 493.117 208.881 492.83C206.478 492.5 204.06 492.433 201.676 491.858C199.267 491.291 196.901 490.353 194.48 489.879C189.602 489.051 184.767 487.8 179.956 486.388C172.925 484.139 165.707 483.707 158.638 481.797C157.804 481.568 156.96 481.391 156.116 481.222C156.735 481.087 157.349 480.968 157.956 480.875C165.042 479.928 172.081 478.39 179.178 477.637C183.945 477.324 188.711 476.851 193.438 475.862C202.597 474.061 211.835 473.224 221.075 472.86C221.617 472.852 222.159 472.852 222.702 472.852C229.246 472.852 235.786 473.461 242.3 474.272C247.029 474.754 251.754 475.422 256.395 476.851C258.733 477.544 261.082 478.136 263.427 478.779C269.251 480.52 274.822 483.64 280.61 485.618C285.329 487.368 289.842 490.099 294.44 492.407C297.73 494.267 300.897 496.558 304.215 498.325C310.129 502.012 316.319 504.793 322.072 509.003C329.353 514.829 336.233 521.727 342.761 529.159C343.636 530.106 344.386 531.23 345.12 532.389C342.66 530.706 340.32 528.66 337.87 526.935ZM336.535 549.923C335.976 550.507 335.423 551.09 334.855 551.648C334.268 552.223 333.672 552.798 333.074 553.356C331.881 554.463 330.713 555.639 329.525 556.763C327.275 558.902 324.941 560.847 322.64 562.867C320.394 564.846 318.187 566.917 315.999 569.022C313.765 571.169 311.519 573.309 309.257 575.397C307.103 577.392 304.906 579.277 302.694 581.137C301.477 582.152 300.243 583.15 299.001 584.105C297.767 585.06 296.534 586.024 295.275 586.903C294.161 587.69 293.048 588.484 291.911 589.195C291.499 589.457 291.094 589.727 290.684 589.998C290.222 590.294 289.755 590.589 289.295 590.902C288.257 591.604 287.208 592.28 286.167 592.991C285.109 593.701 284.05 594.419 282.975 595.087C281.721 595.857 280.467 596.626 279.192 597.328C278.021 597.979 276.822 598.562 275.614 599.061C274.342 599.585 273.055 600.033 271.767 600.481C270.457 600.929 269.152 601.394 267.85 601.893C267.185 602.155 266.52 602.417 265.857 602.696C265.684 602.764 265.514 602.832 265.344 602.908C267.65 600.684 269.84 598.199 272.19 596.068C276.755 591.9 281.47 588.07 285.9 583.589C290.471 579.396 295.128 575.414 299.744 571.33C303.589 568.295 307.531 565.505 311.425 562.588C316.795 558.978 322.293 555.748 327.726 552.341C331.622 549.873 335.711 548.224 339.793 546.542C338.703 547.658 337.621 548.799 336.535 549.923ZM274.954 590.15C275.941 588.882 276.94 587.63 277.943 586.388C279.977 583.868 282.016 581.366 284.013 578.796C285.014 577.51 286.027 576.234 287.035 574.957C287.99 573.74 288.956 572.548 289.948 571.398C290.873 570.324 291.802 569.25 292.749 568.219C293.269 567.652 293.784 567.077 294.304 566.511C294.849 565.919 295.404 565.336 295.945 564.744C296.476 564.152 297.017 563.577 297.556 563.011C298.096 562.436 298.628 561.844 299.164 561.269C300.255 560.094 301.369 558.961 302.494 557.862C303.513 556.864 304.558 555.909 305.623 555.021C306.219 554.531 306.818 554.041 307.428 553.584C307.768 553.33 308.106 553.068 308.447 552.823C308.741 552.603 309.043 552.409 309.34 552.198C310.182 551.589 311.042 551.048 311.905 550.507C313.151 549.729 314.4 548.968 315.661 548.249C317.958 546.939 320.252 545.62 322.567 544.386C323.077 544.31 323.591 544.25 324.104 544.191C328.283 543.447 332.494 543.084 336.682 542.475C336.401 542.576 336.121 542.686 335.84 542.796C328.862 545.163 322.35 549.568 315.804 553.66C302.116 562.157 289.918 574.619 278.007 587.326C276.845 588.374 275.713 589.473 274.597 590.606C274.716 590.463 274.834 590.302 274.954 590.15ZM309.422 541.925C301.573 543.709 293.683 544.8 285.739 545.206C271.785 547.142 257.812 548.951 243.812 550.126C234.104 550.312 224.421 551.191 214.763 552.595C208.952 553.373 203.089 553.128 197.357 554.937C196.25 555.199 195.136 555.453 194.018 555.647C194.529 555.393 195.04 555.14 195.551 554.911C200.914 552.705 205.919 549.188 211.145 546.457C213.96 545.07 216.859 544.183 219.733 543.117C222.548 542.069 225.302 540.708 228.126 539.71C231.929 538.332 235.864 537.977 239.707 536.886C245.579 535.415 251.438 533.657 257.396 533.031C265.372 532.118 273.389 532.761 281.378 532.304C287.551 532.203 293.726 531.814 299.9 531.814C302.114 531.814 304.328 531.864 306.542 531.991C309.471 532.11 312.357 532.778 315.24 533.479C320.279 534.181 325.321 534.756 330.283 536.303C330.908 536.497 331.532 536.675 332.16 536.861C331.562 537.064 330.966 537.275 330.372 537.504C330.025 537.63 329.679 537.766 329.334 537.901C326.679 538.239 324.023 538.594 321.377 539.076C317.357 539.685 313.415 541.046 309.422 541.925ZM190.216 554.523C191.878 552.477 193.631 550.371 195.359 548.444C198.332 545.113 201.536 542.238 204.783 539.499C209.946 535.119 215.172 530.791 220.75 527.57C226.883 524.145 233.248 521.601 239.661 519.512C244.197 518.008 248.847 517.602 253.465 516.959C258.445 516.139 263.399 514.93 268.411 514.575C272.378 514.287 276.365 514.042 280.348 514.042C283.299 514.042 286.249 514.178 289.184 514.524C293.271 515.251 297.286 516.638 301.38 517.306C305.138 517.991 308.949 517.974 312.692 518.819C312.775 518.844 312.856 518.861 312.939 518.878C313.958 519.267 314.975 519.673 315.99 520.087C322.882 522.624 329.298 527.13 335.86 530.968C336.817 531.619 337.759 532.329 338.695 533.048C338.486 532.997 338.279 532.947 338.072 532.887C332.031 531.425 326.062 529.193 319.932 528.593C315.878 528.339 311.942 526.707 307.888 526.454C297.415 525.667 286.927 526.513 276.45 526.648C266.435 526.707 256.365 526.437 246.502 529.37C240.577 531.104 234.592 532.422 228.662 534.096C225.069 535.331 221.601 537.182 218.051 538.628C214.245 540.082 210.453 541.689 206.858 544.031C201.37 547.734 195.739 550.946 190.216 554.523ZM150.963 480.03C150.052 479.725 149.155 479.337 148.282 478.829C148.209 478.779 148.133 478.736 148.057 478.686C153.202 476.318 158.256 473.435 163.413 471.093C172.951 467.407 182.397 463.248 191.961 459.697C198.167 457.735 204.177 454.725 210.356 452.62C223.663 448.63 237.196 445.299 250.833 445.476C255.813 445.535 260.778 446.212 265.733 446.871C271.688 447.843 277.757 449.205 283.224 452.891C292.928 458.936 302.673 465.632 310.55 475.963C314.17 480.723 318.057 485.086 321.432 490.209C323.073 492.771 324.548 495.561 326.294 497.987C329.698 502.485 333.023 507.118 336.06 512.132C338.732 516.799 341.974 520.738 344.598 525.447C344.497 525.929 344.556 526.386 344.688 526.809C343.546 525.388 342.384 524.002 341.206 522.641C334.254 515.116 327.132 507.6 319.115 502.586C310.957 497.928 302.894 492.957 294.808 488.062C291.432 486.354 288.098 484.477 284.713 482.811C281.236 481.289 277.69 480.114 274.22 478.559C269.808 476.47 265.339 474.627 260.747 473.571C253.799 471.364 246.76 470.138 239.661 469.521C234.207 468.878 228.728 468.422 223.252 468.422C221.566 468.422 219.879 468.464 218.194 468.557C208.66 469.047 199.168 470.417 189.738 472.471C185.002 473.469 180.209 473.647 175.461 474.467C167.893 476.022 160.308 477.544 152.804 479.649C152.199 479.776 151.582 479.92 150.963 480.03ZM356.318 516.511C356.649 513.273 357.166 510.077 357.611 506.864C357.71 506.509 357.816 506.146 357.926 505.799C359.012 502.324 360.294 498.993 361.479 495.586C363.219 490.463 365.154 485.483 367.002 480.444C369.682 473.917 372.713 467.686 375.67 461.413C378.68 455.292 382.44 450.084 385.866 444.462C390.547 436.404 396.061 429.142 402.363 423.765C396.719 431.814 391.513 440.513 386.506 449.374C383.703 454.776 381.202 460.483 378.174 465.657C374.499 472.962 370.633 480.131 367.453 487.909C366.102 491.308 364.742 494.707 363.463 498.165C361.612 503.28 360.338 508.775 358.513 513.907C357.608 517.23 356.462 520.375 355.303 523.511C355.701 521.203 356.046 518.87 356.318 516.511ZM377.297 445.535C377.032 445.079 376.773 444.614 376.522 444.14C375.933 443.024 375.362 441.9 374.761 440.809C374.181 439.752 373.576 438.721 372.98 437.681C371.986 435.939 371.012 434.172 370.076 432.372C369.14 430.571 368.228 428.736 367.317 426.902C365.464 423.19 363.684 419.411 361.972 415.556C361.033 413.442 360.11 411.32 359.261 409.13C358.423 406.974 357.703 404.734 357.036 402.46C356.364 400.168 355.666 397.903 354.96 395.637C354.246 393.363 353.621 391.046 353.015 388.704C352.714 387.546 352.408 386.388 352.097 385.229C352.056 385.077 352.014 384.925 351.971 384.781C353.188 386.76 354.417 388.729 355.478 390.877C357.291 394.774 358.812 398.959 360.945 402.544C364.022 407.245 366.813 412.318 369.844 417.077C373.249 421.998 377.039 426.335 380.539 431.12C382.086 432.82 383.322 435.001 384.85 436.734C385.222 437.216 385.514 437.901 385.965 438.239C385.158 439.49 384.371 440.759 383.602 442.052C382.042 444.58 380.374 446.973 378.761 449.424C378.772 449.281 378.772 449.129 378.763 448.976C378.733 448.554 378.592 448.182 378.457 447.81C378.348 447.522 378.241 447.243 378.112 446.964C377.868 446.465 377.568 446.009 377.297 445.535ZM356.154 387.233C357.597 388.67 359.005 390.175 360.441 391.621C361.861 393.058 363.301 394.445 364.753 395.806C366.146 397.116 367.533 398.444 368.871 399.872C370.244 401.344 371.588 402.874 372.911 404.438C375.548 407.558 378.284 410.508 380.935 413.611C382.261 415.167 383.591 416.714 384.898 418.295C386.12 419.791 387.328 421.296 388.566 422.75C389.799 424.213 391.083 425.591 392.402 426.893C392.784 427.274 393.164 427.654 393.552 428.018C393.614 428.077 393.679 428.144 393.743 428.212C393.106 428.922 392.478 429.658 391.856 430.402C390.142 432.312 388.545 434.418 387.029 436.641C387.022 436.616 387.012 436.599 387.003 436.582C386.12 434.993 385.086 433.589 384.2 432C380.912 426.851 377.428 421.947 373.963 417.044C371.238 413.112 368.967 408.606 366.353 404.548C364.6 401.893 362.737 399.391 361.164 396.508C359.491 393.557 358.145 390.184 356.138 387.647C355.643 387.039 355.155 386.413 354.663 385.796C355.162 386.261 355.66 386.743 356.154 387.233ZM382.935 386.599C379.713 376.031 376.883 365.243 374.009 354.472C371.155 343.185 367.126 332.465 365.165 320.755C363.184 309.282 361.534 297.717 360.853 285.922C360.352 279.835 359.42 273.841 359.067 267.728C358.885 264.609 358.757 261.48 358.485 258.361C357.885 252.848 357.404 246.871 357.114 241.308C361.288 247.767 363.916 255.943 367.301 263.231C370.631 270.78 373.459 278.745 376.651 286.413C379.552 293.489 382.7 300.346 385.717 307.312C391.546 320.104 397.715 332.566 403.15 345.721C409.672 360.381 415.558 375.557 420.927 391.147C425.092 402.865 429.326 414.575 432.725 426.809C434.577 433.555 436.013 440.522 437.709 447.345C438.733 452.671 439.989 457.904 440.891 463.281C441.596 467.61 442.196 471.973 443.089 476.234C443.259 477.105 443.42 477.975 443.577 478.846C443.222 479.083 442.871 479.32 442.518 479.573C440.123 481.315 437.79 483.243 435.523 485.331C435.097 484.9 434.655 484.494 434.227 484.071C430.573 480.089 426.751 476.42 423.343 471.998C419.709 467.255 416.223 462.326 412.995 457.008C409.554 451.623 406.091 446.254 402.679 440.826C402.607 440.716 402.538 440.598 402.469 440.48C402.854 439.008 403.229 437.537 403.597 436.066C404.191 433.513 404.906 431.019 405.624 428.525C406.508 425.803 406.913 422.657 408.284 420.307C408.719 419.47 409.499 418.718 409.467 417.568C409.411 416.824 408.925 416.224 408.406 416.224C408.373 416.224 408.339 416.223 408.305 416.232C408.01 416.274 407.741 416.511 407.47 416.68C406.627 417.187 405.799 417.737 404.971 418.295C402.377 419.977 399.908 421.981 397.552 424.247C397.43 424.002 397.305 423.756 397.202 423.52C395.982 420.907 394.875 418.176 393.753 415.471C389.781 406.146 386.336 396.364 382.935 386.599ZM370.587 254.92C378.413 264.27 385.646 274.551 393.138 284.426C401.026 294.225 407.727 305.782 414.716 316.858C422.51 330.427 430.587 344.005 436.308 359.646C442.067 375.439 445.061 392.965 447.374 410.373C449.067 421.905 449.921 433.657 450.317 445.409C450.485 453.88 450.876 462.334 450.826 470.806C450.839 472.015 450.858 473.224 450.885 474.433C449.422 475.278 447.956 476.115 446.504 476.986C446.131 474.898 445.772 472.801 445.42 470.704C443.858 459.325 441.543 448.156 438.765 437.275C437.509 431.585 436.165 425.946 434.517 420.459C430.964 408.395 426.926 396.634 422.804 384.959C419.656 375.684 416.35 366.528 412.774 357.575C407.548 344.749 402.249 331.974 396.732 319.394C393.177 311.853 389.634 304.303 386.29 296.567C379.702 282.473 374.336 267.289 367.255 253.66C366.365 251.859 365.504 249.999 364.597 248.198C366.643 250.346 368.658 252.552 370.587 254.92ZM397.191 458.707C397.883 460.348 398.882 461.785 399.733 463.18C401.452 465.733 403.082 468.405 404.846 470.899C409.366 476.935 414.09 482.642 419.313 487.385C421.817 489.871 424.438 492.204 427.209 494.022C426.284 495.113 425.373 496.237 424.48 497.387C424.074 497.159 423.663 496.956 423.253 496.753C421.964 496.127 420.669 495.535 419.383 494.901C418.145 494.301 416.962 493.489 415.788 492.669C414.529 491.782 413.282 490.868 412.005 490.04C411.434 489.676 410.852 489.347 410.291 488.958C409.674 488.535 409.067 488.087 408.455 487.656C407.214 486.793 405.99 485.88 404.796 484.891C404.124 484.342 403.461 483.767 402.81 483.175C402.186 482.6 401.599 481.983 401.029 481.306C398.969 478.888 396.898 476.454 394.717 474.264C394.015 473.562 393.294 472.886 392.558 472.252C394.19 467.805 395.734 463.281 397.191 458.707ZM401.804 442.982C404.021 449.627 407.223 455.613 410.638 461.066C412.949 464.939 415.374 468.633 418.066 471.973C421.046 476.124 424.342 479.802 427.759 483.2C429.379 484.688 430.759 486.768 432.303 488.442C431.39 489.364 430.49 490.311 429.604 491.291C429.586 491.274 429.568 491.274 429.549 491.266C426.245 489.203 423.039 486.717 420.126 483.657C412.502 476.42 405.965 467.103 399.602 457.744C399.151 457.017 398.742 456.239 398.283 455.529C398.263 455.495 398.24 455.461 398.217 455.427C399.485 451.318 400.679 447.176 401.804 442.982ZM389.274 471.888C389.399 472.252 389.551 472.598 389.714 472.928C385.284 484.815 380.666 496.618 374.402 506.755C370.936 512.732 366.742 517.678 362.342 522.167C360.34 524.348 358.242 526.361 356.239 528.542C357.648 524.813 359.238 521.203 360.377 517.263C362.867 510.39 364.829 503.128 367.696 496.533C372.412 484.578 378.227 473.63 383.954 462.656C385.685 459.308 387.091 455.664 388.761 452.257C392.844 444.242 397.149 436.455 401.441 428.66C402.635 426.597 403.85 424.543 405.166 422.632C402.755 430.757 400.624 439.101 398.265 447.269C396.247 454.218 393.923 460.982 391.635 467.745C391.27 468.735 390.901 469.724 390.536 470.713C390.31 470.578 390.073 470.459 389.838 470.442C389.562 470.417 389.281 470.62 389.196 471.017C389.129 471.322 389.18 471.609 389.274 471.888ZM438.981 497.717C431.698 507.253 425.094 517.788 418.952 528.846C414.164 537.005 410.192 546 406.312 555.072C404.72 558.445 403.381 562.047 402.002 565.606C402.274 563.349 402.545 561.083 402.77 558.809C404.904 539.245 415.768 519.36 424.758 504.793C430.039 497.142 436.287 490.885 442.827 485.66C443.43 485.187 444.037 484.739 444.654 484.299C444.914 485.111 445.339 485.787 445.986 485.982C447.721 485.973 447.823 484.274 447.54 482.397C449.82 480.968 452.135 479.641 454.397 478.161C448.879 483.978 443.927 490.962 438.981 497.717ZM463.13 474.999C464.335 474.01 465.537 472.987 466.784 472.108C466.798 472.099 466.814 472.083 466.828 472.074C465.228 476.149 463.24 479.911 461.42 483.792C458.187 490.733 454.415 497.108 450.936 503.787C446 514.135 439.741 522.869 433.647 531.78C429.752 537.571 425.617 543.067 421.38 548.342C420.948 548.85 420.508 549.34 420.069 549.83C419.615 550.253 419.164 550.684 418.715 551.115C413.365 556.027 408.551 561.946 403.76 567.889C403.086 568.701 402.336 569.386 401.666 570.197C401.581 570.299 401.505 570.4 401.436 570.518C401.436 570.51 401.439 570.493 401.441 570.485C402.274 568.895 403.042 567.247 403.806 565.59C406.013 560.88 408.491 556.45 410.882 551.927C416.911 539.955 423.831 528.99 430.576 517.847C435.574 509.764 440.988 502.248 446.233 494.504C451.421 487.301 456.744 479.979 463.13 474.999ZM457.354 469.555C458.523 463.459 459.772 457.406 460.868 451.284C463.985 432.262 467.815 413.366 473.324 395.459C478.037 380.461 483.325 365.818 489.402 351.859C498.462 331.256 509.205 312.309 520.212 293.802C535.455 268.523 552.69 245.84 571.516 226.158C592.026 203.677 614.765 185.449 638.994 172.632C646.493 168.252 654.264 164.913 662.028 161.641C671.383 157.473 680.679 153.026 689.986 148.621C689.256 149.264 688.525 149.906 687.789 150.523C685.798 152.223 683.942 154.218 682.075 156.188C669.598 168.388 657.916 182.177 646.228 195.873C637.887 206.433 629.516 216.942 621.268 227.662C610.465 241.697 599.272 255.157 588.898 269.867C577.693 285.787 566.727 302.071 556.259 318.997C546.146 335.026 537.144 352.341 528.25 369.774C516.162 393.016 504.753 416.968 492.515 440.057C486.111 451.944 479.79 463.924 473.138 475.532C466.275 486.996 459.3 498.325 452.218 509.519C453.401 507.27 454.574 505.004 455.787 502.789C457.611 499.568 459.455 496.355 461.164 492.999C464.503 486.142 468.116 479.446 470.678 471.905C471.255 469.572 472.928 465.64 471.683 463.4C471.364 462.892 470.905 462.639 470.443 462.639C470.166 462.639 469.888 462.732 469.637 462.918C465.445 465.361 461.344 468.117 457.181 470.679C457.234 470.29 457.289 469.918 457.354 469.555ZM445.598 1114.39C446.453 1113.68 447.302 1112.95 448.145 1112.21C448.678 1111.73 449.203 1111.24 449.725 1110.74C449.798 1110.67 449.89 1110.53 449.913 1110.53C449.928 1110.53 449.913 1110.59 449.841 1110.78C449.772 1110.95 449.705 1111.13 449.638 1111.3C448.032 1115.96 446.845 1120.89 445.572 1125.75C445.473 1126.08 445.372 1126.41 445.273 1126.74C445.057 1122.84 444.836 1118.94 444.661 1115.04C444.997 1114.86 445.319 1114.62 445.598 1114.39ZM466.696 1094.47C468.786 1093.04 470.772 1091.33 472.785 1089.71C479.341 1084.51 485.311 1077.71 492.506 1074.33C509.53 1064.99 527.827 1060.14 546.07 1061.05C554.177 1061.76 562.366 1061.91 570.294 1064.72C582 1069.19 593.734 1073.62 605.222 1079.15C622.364 1087.64 639.23 1097.41 656.814 1103.9C661.468 1105.27 666.199 1106.09 670.852 1107.54C672.243 1107.99 673.668 1108.08 675.088 1108.29C677.321 1108.64 679.506 1109.3 681.751 1109.34C678.958 1110.15 676.137 1110.82 673.333 1111.58C669.132 1112.83 665.02 1114.65 660.803 1115.78C655.13 1117.31 649.351 1117.64 643.63 1118.6C638.287 1119.38 632.986 1120.65 627.631 1121.2C617.64 1122.18 607.825 1121.25 597.905 1119.6C588.014 1118.56 578.1 1116.76 568.571 1112.68C564.377 1111.09 560.252 1109.16 556.052 1107.62C553.404 1106.64 550.688 1106.06 548.07 1104.92C543.012 1102.61 538.216 1099.19 533.007 1097.55C522.207 1093.35 511.168 1090.31 499.95 1090.01C498.883 1089.95 497.817 1089.91 496.751 1089.91C493.358 1089.91 489.97 1090.23 486.588 1090.65C478.911 1090.98 471.308 1092.96 463.956 1096.08C464.858 1095.5 465.774 1094.98 466.696 1094.47ZM477.735 1073.23C481.505 1067.5 485.494 1062.07 489.618 1056.87C496.108 1048.71 502.811 1040.69 510.536 1035.03C527.771 1022.5 547.489 1016.87 566.748 1019.29C577.917 1020.84 589.222 1023.13 599.761 1028.9C603.714 1031.2 607.89 1032.61 611.761 1035.2C620.785 1041.54 629.009 1049.82 637.421 1057.64C644.614 1064.38 652.037 1070.59 659.253 1077.28C662.328 1080.22 665.073 1083.81 668.219 1086.62C672.543 1090.21 676.402 1094.81 680.26 1099.34C681.627 1101.13 683.011 1102.97 684.449 1104.69C682.24 1104.63 680.031 1104.67 677.886 1103.91C673.303 1103.2 668.938 1101.76 664.437 1100.45C658.976 1099.19 653.592 1097.44 648.326 1094.95C643.719 1093.22 639.259 1090.78 634.735 1088.65C632.326 1087.57 629.916 1086.5 627.578 1085.14C619.03 1080.39 610.4 1075.94 601.722 1071.73C595.119 1068.58 588.385 1066.02 581.74 1063.08C573.799 1060 565.864 1056.51 557.585 1055.98C552.083 1055.39 546.567 1054.95 541.054 1054.95C535.644 1054.95 530.238 1055.37 524.858 1056.45C512.095 1058.83 499.589 1063.98 487.791 1071.34C481.576 1075.3 476.287 1081.55 470.422 1086.4C469.994 1086.8 469.564 1087.19 469.131 1087.58C472.024 1082.83 474.801 1077.92 477.735 1073.23ZM346.529 1047.46C338.612 1046.43 330.745 1044.64 322.815 1043.89C318.128 1043.31 313.429 1043.35 308.732 1043.24C305.021 1042.65 301.297 1042.62 297.569 1042.85C292.511 1042.81 287.46 1043.04 282.405 1043.29C276.744 1043.35 271.097 1044.17 265.581 1046.04C256.009 1048.87 246.571 1052.54 237.095 1055.95C229.26 1058.75 221.402 1061.63 213.948 1066.16C207.632 1070.05 201.287 1073.92 195.136 1078.34C189.082 1082.93 183 1087.47 176.591 1090.98C168.691 1095.28 160.996 1100.35 153.38 1105.6C149.139 1109.16 144.35 1110.67 139.69 1112.67C136.535 1113.96 133.475 1115.83 130.244 1116.71C129.641 1116.39 129.034 1116.11 128.419 1115.83C127.991 1115.82 128.412 1115.57 128.55 1115.4C131.427 1112.41 134.006 1108.9 136.614 1105.45C144.476 1095.34 152.438 1085.31 160.914 1076.26C165.254 1071.71 169.982 1068.03 174.55 1063.99C180.197 1059.06 185.869 1054.17 191.763 1049.86C204.479 1041.4 216.954 1031.96 230.288 1025.6C233.664 1023.93 237.13 1022.71 240.627 1021.68C251.284 1018.49 261.987 1015.39 272.876 1014.45C275.704 1014.11 278.535 1013.95 281.365 1013.95C296.151 1013.95 310.866 1018.39 324.596 1026.29C330.706 1029.59 336.84 1032.86 342.605 1037.28C349.207 1042.03 355.786 1046.83 362.098 1052.33C357.102 1049.73 351.768 1048.6 346.529 1047.46ZM347.58 1054.68C341.061 1056.7 334.641 1059.38 328.375 1062.66C322.755 1065.67 317.44 1069.71 311.981 1073.27C309.218 1075.19 306.397 1076.94 303.628 1078.85C296.596 1084.18 289.732 1089.98 282.511 1094.81C272.213 1102.33 261.512 1108.58 250.677 1114.3C242.694 1118.79 234.474 1122.24 226.225 1125.56C218.803 1128.6 211.122 1130.22 203.478 1131.62C196.784 1132.67 190.069 1133.7 183.329 1133.8C174.449 1133.5 165.477 1132.8 156.834 1129.68C150.908 1127.49 145.39 1123.5 139.43 1121.44C137.607 1120.75 135.847 1119.8 134.093 1118.81C136.086 1118.19 138.056 1117.32 140.029 1116.67C144.168 1115.17 148.467 1114.26 152.355 1111.62C156.302 1108.82 160.332 1106.28 164.372 1103.78C170.562 1099.51 177.047 1096.25 183.34 1092.33C188.408 1089.16 193.228 1085.25 198.164 1081.7C203.199 1078.14 208.382 1075.03 213.508 1071.76C223.627 1065.32 234.511 1062.14 245.179 1058.18C254.653 1054.82 264.115 1051.12 273.78 1049.08C280.391 1048.13 287.056 1048.17 293.692 1047.94C295.174 1047.95 296.656 1047.91 298.135 1047.87C301.674 1047.78 305.211 1047.7 308.739 1048.36C319.32 1048.17 329.836 1049.76 340.308 1051.83C343.728 1052.3 347.134 1052.97 350.51 1053.86C349.502 1054.07 348.519 1054.34 347.58 1054.68ZM702.357 141.57C702.228 141.105 701.892 140.885 701.556 140.868C700.454 140.944 699.4 141.469 698.328 141.832C694.952 143.185 691.6 144.639 688.248 146.136C678.611 150.16 669.091 154.734 659.436 158.69C646.093 163.983 633.021 170.747 620.32 178.635C601.746 190.37 584.338 205.554 568.211 223.207C547.287 245.129 528.351 270.848 511.937 299.619C502.859 315.226 494.149 331.332 486.576 348.537C476.058 373.004 467.198 399.103 461.535 426.741C458.958 437.123 457.402 447.936 455.064 458.42C455.021 458.64 454.977 458.851 454.933 459.071C454.993 453.728 454.885 448.85 454.922 446.812C454.834 428.609 452.873 410.559 449.935 392.881C446.881 375.371 442.422 358.141 435.157 343.286C427.945 328.736 420.008 314.896 411.372 302.037C407.216 295.662 403.127 289.169 398.53 283.428C389.175 271.795 380.348 259.291 370.578 248.342C367.312 244.8 363.895 241.562 360.579 238.121C358.854 236.709 355.121 231.188 354.019 236.193C353.924 238.45 354.251 240.716 354.32 242.974C354.771 252.257 355.952 261.404 356.313 270.696C357.24 279.768 358.154 288.831 358.685 297.97C359.571 308.056 361.04 318.058 362.696 327.933C364.273 335.086 366.346 341.993 368.226 348.985C371.954 362.546 375.252 376.36 379.474 389.634C383.446 400.667 387.604 411.607 392.611 421.753C392.372 421.398 392.135 421.051 391.895 420.704C390.742 419.022 389.571 417.365 388.368 415.767C385.864 412.444 383.299 409.206 380.631 406.154C379.303 404.632 377.976 403.119 376.655 401.597C375.343 400.075 374.043 398.528 372.69 397.082C371.332 395.645 369.975 394.233 368.562 392.906C367.133 391.562 365.679 390.277 364.236 388.966C362.784 387.647 361.373 386.244 359.956 384.857C358.488 383.42 357.001 382.033 355.485 380.706C354.116 379.514 352.712 378.406 351.321 377.265C350.983 376.995 350.65 376.699 350.316 376.411C349.95 376.09 349.594 375.743 349.211 375.464C348.567 375.008 347.81 375.126 347.279 375.828C346.984 376.225 346.809 376.775 346.798 377.35C346.788 377.73 346.86 378.085 346.943 378.44C347.191 379.514 347.537 380.554 347.845 381.594C348.167 382.684 348.491 383.775 348.807 384.874C349.465 387.157 349.994 389.507 350.537 391.858C350.811 393.041 351.099 394.225 351.402 395.4C351.701 396.558 352.037 397.691 352.344 398.849C352.953 401.158 353.568 403.457 354.187 405.765C355.397 410.263 356.976 414.524 358.656 418.701C359.445 420.662 360.25 422.615 361.09 424.534C361.969 426.546 362.881 428.525 363.808 430.495C365.566 434.24 367.473 437.833 369.579 441.198C370.148 442.103 370.73 442.991 371.312 443.887C371.903 444.791 372.46 445.755 373.04 446.677C373.622 447.607 374.244 448.478 374.895 449.306C375.541 450.135 376.236 450.929 377.099 451.225C377.168 451.234 377.237 451.242 377.304 451.242C377.408 451.242 377.511 451.225 377.61 451.2C376.938 452.265 376.28 453.347 375.652 454.463C372.398 460.069 369.804 466.35 366.931 472.336C363.87 478.99 361.463 486.202 358.945 493.286C358.89 493.456 358.832 493.625 358.775 493.794C358.925 490.691 358.999 487.58 359.024 484.468C359.162 477.164 359.233 469.783 358.467 462.529C357.873 457.82 357.125 453.144 356.288 448.52C354.852 439.473 352.336 430.951 349.35 422.75C345.369 412.698 340.476 403.322 335.214 394.572C329.877 385.686 323.137 378.618 318.448 368.946C316.473 365.091 314.941 360.838 313.026 356.932C312.037 354.996 311.056 353.043 310.237 350.946C309.938 350.228 309.673 349.467 309.287 348.833C308.113 346.964 306.284 348.545 306.357 350.76C306.387 356.095 305.039 361.193 304.424 366.418C303.785 371.22 303.251 376.065 302.936 380.934C302.515 388.045 303.17 395.155 303.442 402.24C303.944 412.241 304.915 422.226 306.877 431.873C310.101 450.625 314.513 467.745 323.13 482.879C325.781 487.723 327.958 493.05 330.494 498.004C329.82 497.032 329.136 496.068 328.446 495.121C326.81 492.712 325.413 490.006 323.874 487.47C321.524 483.606 318.784 480.292 316.142 476.842C313.475 473.393 310.847 469.859 308.014 466.68C305.117 463.45 301.905 460.872 298.722 458.285C294.633 454.818 290.266 452.138 285.916 449.433C283.696 448.013 281.457 446.626 279.116 445.654C272.308 442.948 265.25 442.12 258.229 441.393C242.307 439.71 226.395 443.43 210.865 448.182C203.761 450.591 196.878 454.201 189.736 456.408C183.61 458.657 177.611 461.565 171.508 463.932C165.017 466.266 158.698 469.377 152.448 472.784C149.983 474.052 147.498 475.312 145.011 476.42C142.769 478.88 146.168 481.374 147.799 482.203C151.173 484.046 154.809 484.384 158.322 485.39C164.216 487.191 170.249 487.74 176.154 489.44C182.123 491.266 188.099 493.092 194.158 494.216C196.572 494.758 198.926 495.704 201.333 496.296C203.793 496.905 206.29 497.006 208.768 497.378C211.258 497.75 213.683 498.74 216.166 499.179C221.052 500.033 225.928 500.972 230.792 502.054C236.794 502.857 242.726 504.379 248.681 505.655C253.42 506.966 258.241 507.287 263.02 508.116C267.822 508.767 272.639 509.426 277.448 510.17C272.968 510.272 268.49 510.644 264.035 511.202C260.021 511.777 256.045 512.749 252.032 513.315C248.516 513.789 244.981 514.161 241.511 515.124C230.086 518.456 218.794 523.587 208.75 532.22C202.187 537.656 195.707 543.413 190.06 550.718C188.665 552.434 187.299 554.201 185.89 555.901C185.283 556.535 185.23 557.752 185.681 558.479C185.658 558.674 185.692 558.843 185.858 558.902C185.909 558.91 185.952 558.885 185.983 558.834C186.001 558.851 186.019 558.868 186.037 558.877C186.797 559.325 187.646 559.308 188.454 559.409C193.286 559.84 198.035 558.209 202.808 557.431C205.961 556.949 209.136 557.16 212.298 556.864C218.383 556.34 224.457 555.562 230.546 555.174C236.145 554.709 241.755 555.03 247.354 554.599C253.458 554.1 259.559 553.5 265.653 552.772C271.762 552.291 277.856 551.53 283.937 550.574C291.759 549.864 299.597 549.551 307.349 547.742C308.833 547.505 310.308 547.184 311.781 546.837C311.721 546.863 311.664 546.905 311.604 546.939C310.375 547.683 309.158 548.461 307.957 549.298C305.515 551.005 303.177 552.975 300.929 555.157C299.806 556.247 298.706 557.38 297.62 558.555C296.55 559.714 295.475 560.872 294.415 562.047C292.461 564.211 290.484 566.325 288.592 568.608C287.557 569.859 286.526 571.11 285.527 572.429C284.535 573.731 283.53 575.016 282.536 576.318C280.555 578.914 278.555 581.484 276.534 584.02C274.512 586.557 272.583 589.245 270.531 591.739C269.548 592.931 268.554 594.107 267.562 595.282C266.545 596.491 265.556 597.759 264.569 599.019C263.535 600.346 262.507 601.682 261.458 602.984C261.195 603.305 260.93 603.635 260.666 603.965C260.429 604.252 260.178 604.523 259.955 604.844C259.651 605.267 259.264 605.74 259.249 606.391C259.232 607.076 259.596 607.592 260.036 607.744C260.072 607.752 260.111 607.752 260.148 607.752C260.424 607.752 260.689 607.625 260.956 607.515C261.14 607.439 261.322 607.363 261.504 607.287C261.75 607.177 261.996 607.067 262.242 606.958C262.907 606.67 263.57 606.357 264.242 606.087C265.988 605.385 267.74 604.709 269.505 604.125C270.791 603.703 272.082 603.305 273.368 602.891C274.05 602.663 274.731 602.443 275.409 602.198C276.067 601.969 276.728 601.724 277.374 601.428C277.904 601.183 278.44 600.972 278.964 600.71C279.611 600.388 280.256 600.076 280.895 599.737C282.175 599.053 283.438 598.325 284.697 597.581C285.932 596.837 287.161 596.077 288.379 595.282C289.612 594.487 290.862 593.752 292.102 592.982C293.31 592.23 294.516 591.477 295.705 590.666C296.354 590.226 296.997 589.778 297.639 589.321C298.257 588.882 298.867 588.417 299.484 587.977C300.115 587.521 300.735 587.039 301.355 586.557C301.978 586.066 302.602 585.584 303.221 585.086C304.429 584.113 305.63 583.133 306.824 582.135C309.031 580.284 311.188 578.33 313.35 576.377C315.585 574.365 317.787 572.286 320.024 570.282C320.894 569.504 321.759 568.709 322.638 567.948C323.832 566.917 325.031 565.894 326.228 564.871C327.286 563.966 328.352 563.079 329.39 562.123C330.515 561.1 331.619 560.035 332.717 558.961C333.893 557.794 335.087 556.67 336.251 555.486C337.381 554.345 338.477 553.136 339.586 551.952C340.693 550.769 341.795 549.585 342.895 548.393C343.909 547.285 344.955 546.246 346.029 545.273C346.582 544.766 347.127 544.25 347.672 543.726C348.149 543.27 348.597 542.779 349.037 542.255C349.439 541.773 349.822 541.257 350.226 540.784C350.643 540.928 351.071 541.055 351.485 541.131C351.486 541.139 351.486 541.139 351.487 541.139C351.489 541.139 351.491 541.139 351.492 541.139C351.711 541.122 351.932 541.114 352.15 541.139C352.248 541.148 352.342 541.164 352.435 541.19C352.639 541.173 352.833 541.131 353.015 541.046C354.272 542.035 355.591 542.813 356.957 543.447C361.444 545.265 365.557 548.359 369.643 551.513C373.638 554.48 377.495 557.887 380.869 562.182C374.191 561.498 367.319 563.062 360.883 565.53C353.273 568.295 346.107 573.097 339.224 578.432C334.712 582.152 330.565 586.7 326.287 590.936C323.671 593.794 321.115 596.761 318.473 599.568C317.691 600.431 316.933 601.327 316.218 602.291C314.961 603.965 315.995 606.56 317.564 606.493C324.695 606.163 331.833 605.588 338.978 605.647C345.44 604.852 351.879 603.5 358.166 601.166C363.205 599.12 368.307 597.387 373.321 595.223C374.333 594.707 375.369 594.301 376.379 593.785C374.89 598.816 373.841 604.159 373.093 608.868C372.094 616.384 372.205 624.086 372.145 631.695C371.871 649.196 373.463 666.68 376.85 683.505C377.734 688.239 378.296 693.092 378.66 697.97C378.793 699.712 378.94 701.462 379.092 703.204C379.161 704.184 379.709 704.92 380.376 705.055C380.767 705.098 381.133 704.979 381.451 704.616C381.476 704.506 381.508 704.472 381.547 704.506C381.782 704.649 382.047 704.675 382.293 704.59C383.945 703.694 382.928 700.481 383.927 698.892C385.717 694.682 387.76 690.742 389.919 686.929C390.124 687.926 390.354 688.831 390.48 689.414C390.929 691.274 391.159 693.194 391.387 695.13C392.034 702.037 393.738 708.623 394.97 715.336C395.142 716.274 395.299 717.213 395.444 718.16C379.209 711.219 362.013 710.086 345.157 709.19C342.517 709.164 339.878 709.249 337.248 709.562C334.592 709.866 332.022 710.914 329.392 711.455C324.518 712.673 319.2 714.119 315.109 718.312C315.019 717.492 314.945 716.756 314.931 716.198C313.954 705.622 311.63 695.341 308.398 685.745C304.986 675.439 300.308 665.978 295.158 657.313C290.647 650.752 285.919 644.369 280.536 639.296C272.468 631.56 263.273 626.961 254.043 622.987C244.97 619.36 235.906 615.59 226.579 613.552C224.124 613.172 221.547 612.149 219.107 613.028C218.35 613.476 217.924 614.643 218.132 615.784C218.254 616.444 218.596 616.917 218.882 617.441C220.741 621.11 222.423 624.983 224.48 628.44C228.675 635.229 233.185 641.596 237.482 648.249C240.782 653.322 244.038 658.479 247.62 663.146C252.561 669.343 257.916 674.822 263.066 680.656C263.464 681.078 263.862 681.493 264.265 681.915C263.266 681.653 262.268 681.4 261.269 681.154C256.333 679.785 251.36 678.719 246.35 678.077C238.858 677.079 231.31 677.215 223.792 677.147C218.709 677.172 213.658 677.959 208.607 678.694C200.977 679.531 193.39 681.036 185.987 683.86C178.941 686.802 172.318 691.494 165.353 694.8C158.709 698.376 151.813 700.879 145.254 704.785C140.641 707.516 136.183 710.787 131.815 714.254C126.18 718.887 120.708 723.892 115.07 728.517C110.923 732.051 107.071 736.269 102.814 739.541C101.693 740.598 99.9497 740.429 99.5579 742.661C99.0566 747.379 103.148 746.829 105.375 747.226C110.256 747.869 115.155 748.249 120.027 749.027C130.212 751.031 140.383 753.195 150.579 755.114C158.272 757.017 166.029 758.462 173.848 758.234C190.389 758.386 206.992 757.051 223.316 753.094C226.326 752.257 229.352 751.53 232.38 750.803C228.982 752.688 225.599 754.65 222.232 756.653C215.08 760.568 207.924 764.592 201.303 770.164C193.7 776.69 185.938 782.871 178.566 789.922C173.908 794.462 169.467 799.442 164.964 804.286C160.163 809.494 155.264 814.533 150.765 820.29C146.101 826.327 141.593 832.626 137.251 839.144C132.785 846.119 128.495 853.331 124.012 860.28C104.867 889.499 91.8956 925.524 80.7116 961.954C75.127 981.104 69.8594 1000.5 66.4768 1020.72C63.1797 1038.56 62.0521 1057.03 58.9358 1074.92C56.9088 1087.33 53.862 1099.36 51.9592 1111.81C51.6829 1113.63 51.4273 1115.45 51.1374 1117.27C50.9902 1118.19 50.7692 1119.14 50.8199 1120.1C50.827 1120.36 50.8611 1120.61 50.9189 1120.84C50.2449 1123.17 50.0146 1125.4 51.5863 1126.11C52.3822 1126.42 53.1692 1125.92 53.8549 1125.35C54.1612 1125.11 54.4882 1124.88 54.6814 1124.45C55.0655 1123.63 54.824 1122.39 54.1889 1121.99C54.0623 1122 54.021 1121.96 54.067 1121.86C54.1082 1121.74 54.1495 1121.62 54.1913 1121.49C54.7067 1120.84 55.1715 1120.01 55.7076 1119.4C59.1732 1115.02 62.5652 1110.54 65.9019 1105.97C69.3145 1101.17 73.4493 1097.67 77.0946 1093.27C80.6545 1088.87 83.9081 1083.97 87.5257 1079.66C94.682 1070.99 101.769 1062.19 108.655 1053.09C110.707 1050.33 112.617 1047.36 114.541 1044.42C121.132 1034.56 128.06 1025.18 134.948 1015.75C141.223 1006.75 148.471 999.366 154.954 990.7C166.669 975.904 177.144 959.317 188.196 943.549C203.936 921.178 219.158 897.979 233.542 873.799C240.784 861.768 247.151 848.757 253.956 836.236C259.12 827.248 263.869 817.796 268.977 808.75C271.725 803.61 274.296 798.283 277.156 793.27C282.444 784.333 287.843 775.549 292.997 766.452C295.89 761.895 298.971 757.6 301.666 752.79C303.474 749.408 305.446 746.237 307.436 743.084C306.629 745.4 305.865 747.759 305.184 750.169C298.727 771.973 295.286 795.476 294.861 819.149C294.131 842.991 293.782 867.112 296.837 890.666C299.323 910.306 304.335 929.007 308.728 947.869C311.211 958.674 313.571 969.546 316.368 980.191C316.724 981.501 317.118 982.786 317.509 984.071C317.511 984.08 317.511 984.088 317.511 984.088C317.55 984.266 317.598 984.426 317.663 984.587C317.737 984.824 317.81 985.069 317.882 985.306C317.849 986.515 318.367 987.622 319.239 987.774C320.924 987.986 321.264 985.187 321.734 983.403C322.316 981.112 322.958 978.846 323.658 976.623C326.028 969.183 329.037 962.208 331.852 955.098C334.961 946.702 337.913 938.129 340.253 929.218C344.202 913.501 345.187 896.736 345.815 880.165C346.216 870.476 346.641 860.762 346.31 851.065C345.78 841.308 345.164 831.535 344.007 821.897C342.276 809.164 341.098 796.246 338.49 783.801C337.439 779.48 336.431 775.135 335.46 770.781C336.104 772.818 336.758 774.856 337.441 776.868C341.054 786.929 344.52 797.1 348.075 807.211C352.732 818.54 357.712 829.7 363.502 839.922C367.384 846.838 371.572 853.398 376.078 859.486C378.816 862.977 381.474 866.959 384.61 869.741C384.997 870.646 385.489 871.381 386.255 871.626C386.79 871.685 387.185 871.499 387.466 871.144C388.232 870.603 388.469 869.056 388.423 867.796C388.492 865.175 388.573 862.563 388.605 859.942C388.812 849.797 387.912 839.558 385.694 829.903C384.332 823.562 383.239 817.086 381.441 810.965C379.106 802.798 376.878 794.546 373.868 786.827C368.546 773.799 361.569 762.36 354.58 751.141C348.204 742.289 341.915 732.592 333.584 727.578C331.792 726.555 330.034 725.304 328.248 724.171C328.92 723.977 329.599 723.807 330.278 723.672C333.124 723.19 335.973 722.691 338.836 722.48C343.051 722.015 347.237 721.026 351.476 721.068C353.996 720.865 356.5 721.432 359.017 721.44C362.735 721.474 366.484 721.668 370.168 722.438C372.695 723.216 375.268 723.605 377.787 724.391C380.48 725.439 383.181 726.462 385.841 727.671C387.107 728.128 388.209 729.168 389.456 729.683C390.802 730.157 392.133 730.706 393.449 731.332C394.445 731.738 395.432 732.22 396.427 732.668C396.415 733.234 396.465 733.818 396.51 734.367C396.698 736.65 397.179 738.856 397.618 741.055C398.596 747.269 400.601 752.976 401.977 759.004C405.426 775.82 406.851 793.337 408.828 810.602C410.654 830.495 412.804 850.338 414.589 870.248C415.685 883.344 416.715 896.457 417.279 909.629C418.244 928.069 418.483 946.618 420.397 964.93C423.046 994.411 426.848 1023.69 428.707 1053.31C429.556 1067.73 430.26 1082.17 430.601 1096.63C430.64 1100.75 430.782 1104.85 430.914 1108.95C430.421 1108.61 429.964 1108.14 429.478 1107.76C425.612 1104.35 421.986 1100.39 418.115 1096.98C412.946 1092.52 407.421 1088.97 402.226 1084.57C399.363 1082.14 396.633 1079.46 393.934 1076.68C388.655 1071.25 383.137 1066.29 378.006 1060.55C370.184 1051.76 361.631 1044.4 352.889 1037.66C344.676 1031.31 336.33 1025.35 327.53 1020.85C314.745 1013.42 301.21 1008.74 287.417 1007.74C273.198 1006.88 258.983 1009.63 245.122 1014.03C238.17 1016.01 231.257 1018.34 224.662 1022.13C215.007 1027.27 205.853 1034.07 196.547 1040.35C193.215 1042.57 189.896 1044.83 186.686 1047.38C178.142 1054.25 169.801 1061.67 161.491 1069.1C153.21 1077.27 145.699 1086.95 138.109 1096.37C134.232 1101.14 130.695 1106.51 126.532 1110.78C124.82 1112.85 120.855 1114.43 122.501 1118.57C123.097 1119.84 124.169 1120.3 125.145 1120.68C126.627 1121.25 128.081 1121.9 129.517 1122.67C135.392 1126.5 141.697 1128.58 147.643 1132.14C159.169 1139.2 171.888 1140.5 184.282 1140.83C194.828 1140.42 205.383 1138.87 215.764 1136.14C222.248 1134.46 228.523 1131.57 234.808 1128.79C247.538 1123.21 259.955 1116.12 272.199 1108.66C283.841 1101.28 294.969 1092.43 306.139 1083.74C313.007 1079.21 319.799 1074.42 326.727 1070.08C332.919 1066.55 339.338 1063.86 345.831 1061.76C349.665 1060.45 353.581 1059.6 357.53 1059.96C361.721 1060.16 365.959 1060.86 369.747 1063.63C374.821 1067.16 379.571 1071.58 384.378 1075.8C389.304 1080.29 393.928 1085.42 398.769 1090.1C402.828 1094.31 407.46 1097.28 411.405 1101.72C416.228 1107.68 420.473 1114.5 424.908 1121.03C425.851 1122.42 426.636 1124.02 427.524 1125.48C428.226 1126.92 428.76 1128.58 429.763 1129.66C430.007 1129.87 430.253 1130.01 430.493 1130.08C430.536 1130.63 430.587 1131.18 430.645 1131.73C430.861 1133.1 430.396 1134.67 430.999 1135.88C431.31 1136.27 431.599 1136.56 431.869 1136.73C431.846 1137.26 431.825 1137.77 431.805 1138.29C430.82 1153.28 430.449 1168.35 430.186 1183.4C429.524 1194.05 429.376 1204.73 429.179 1215.4C428.801 1228.24 427.69 1241 426.818 1253.79C426.344 1258.56 426.148 1263.37 425.826 1268.18C425.333 1275.04 425.513 1281.21 430.09 1285.1C431.215 1286.08 432.407 1286.52 433.577 1286.52C436.532 1286.52 439.335 1283.69 440.489 1279.42C441.943 1274.72 441.639 1269.45 442.049 1264.44C442.484 1254.14 443.427 1243.9 443.59 1233.56C443.92 1220.9 443.485 1208.21 443.837 1195.54C444.039 1191.77 444.29 1188 444.525 1184.23C445.381 1182.69 445.42 1179.91 445.436 1177.89C445.496 1174.46 445.625 1171.03 445.65 1167.61C445.666 1157.72 446.391 1147.82 445.885 1137.94C446.113 1137.87 446.332 1137.73 446.527 1137.54C447.937 1135.98 447.521 1133.02 448.373 1130.99C449.993 1125.85 451.047 1120.38 452.667 1115.23C454.017 1111.27 455.885 1107.59 458.099 1104.54C459.846 1103.28 462.271 1103.36 464.183 1102.46C467.661 1101.2 471.158 1100.03 474.69 1099.13C478.814 1098.13 483 1097.71 487.177 1097.51C491.634 1097.03 496.105 1096.69 500.576 1097.02C513.15 1097.4 525.585 1101.03 537.565 1106.37C540.294 1107.77 542.956 1109.47 545.724 1110.71C548.509 1112.01 551.404 1112.7 554.257 1113.6C557.152 1114.52 559.971 1115.83 562.827 1116.95C573.634 1121.62 584.78 1124.46 596.049 1125.36C600.362 1125.83 604.662 1126.61 608.98 1127.05C614.877 1127.51 620.797 1127.43 626.694 1127.04C630.853 1126.7 634.977 1125.82 639.094 1125.01C646.01 1123.6 653.009 1123.06 659.895 1121.37C666.699 1119.47 673.279 1116.27 680.137 1114.74C683.094 1113.81 686.063 1112.86 688.932 1111.46C691.212 1110.48 692.154 1107.62 690.245 1105.65C685.556 1100.64 681.456 1094.65 676.743 1089.68C673.792 1086.08 670.346 1083.56 667.224 1080.32C660.638 1072.74 653.268 1066.79 646.14 1060.33C636.308 1051.78 627.142 1041.69 616.986 1033.92C613.381 1030.8 609.457 1028.67 605.445 1026.89C601.345 1024.83 597.322 1022.42 593.11 1020.84C576.986 1015.07 560.123 1011.93 543.543 1014.77C537.951 1015.51 532.449 1017.14 527.044 1019.29C518.82 1022.49 510.738 1026.74 503.405 1033.03C493.62 1041.62 484.993 1052.71 476.826 1064.2C470.701 1072.91 465.825 1083.26 459.694 1091.96C456.376 1096.79 452.434 1100.53 448.663 1104.57C447.215 1106.16 445.834 1107.9 444.456 1109.62C444.392 1107.52 444.348 1105.41 444.332 1103.3C444.099 1095.58 444.76 1087.87 444.58 1080.15C444.504 1064.37 443.747 1048.62 442.643 1032.93C441.814 1019.66 440.949 1006.4 439.865 993.177C439.096 981.603 438.445 970.02 437.635 958.454C435.921 936.861 433.146 915.48 431.452 893.879C427.443 851.91 424.319 809.663 417.586 768.337C416.594 762.182 415.634 756.011 414.483 749.907C413.736 745.781 412.677 741.782 411.888 737.673C411.872 737.538 411.855 737.402 411.837 737.275C411.361 733.606 410.915 729.937 410.33 726.302C410.231 725.676 410.128 725.05 410.019 724.433C410.141 724.078 410.185 723.647 410.128 723.232C410.109 721.66 410.258 720.104 410.42 718.557C411.085 712.512 411.996 706.526 413.183 700.642C413.464 698.469 414.288 696.432 414.341 694.217C414.256 693.955 414.338 693.709 414.391 693.447C415.167 689.11 416.177 684.883 417.321 680.706C419.229 673.317 420.899 665.784 423.193 658.606C425.115 652.223 427.487 646.085 429.002 639.474C429.128 638.882 429.234 638.298 429.342 637.707C434.207 647.827 438.981 658.04 444.249 667.737C453.681 683.547 464.142 697.987 474.037 713.172C478.478 720.485 483.651 726.775 488.525 733.471C498.538 747.226 508.886 760.568 520.039 772.404C525.337 777.976 530.677 783.463 536.255 788.442C540.16 791.993 544.245 795.096 548.148 798.647C558.174 807.524 568.773 815.074 579.602 821.685C582.058 823.207 584.362 825.363 586.948 826.386C590.312 826.014 587.826 820.451 587.083 817.086C585.923 813.468 585.051 809.697 584.368 805.842C582.117 795.882 579.667 786.007 576.898 776.318C574.577 767.213 572.294 758.091 569.951 749.002C567.974 741.655 566.566 734.012 564.72 726.589C563.25 720.815 561.924 714.972 560.517 709.164C557.661 697.674 554.292 686.455 550.516 675.524C546.335 664.245 541.502 653.483 536.334 643.084C533.832 638.045 531.469 632.828 528.51 628.305C524.425 621.753 520.076 615.497 515.479 609.646C515.925 610.103 516.371 610.559 516.815 611.016C519.264 613.307 521.887 615.201 524.391 617.374C529.971 621.871 535.487 626.564 541.412 630.081C549.144 635.441 557.429 638.73 565.54 642.644C571.438 645.586 577.281 648.731 583.319 651.056C586.653 652.696 590.265 652.899 593.552 654.709C593.84 655.292 594.17 655.867 594.695 655.985C594.806 656.011 594.918 656.019 595.024 656.002C595.425 656.56 595.831 657.11 596.391 657.27C597.882 657.609 598.535 654.971 597.575 653.567C595.831 651.521 594.259 649.179 592.762 646.744C589.552 641.663 586.441 636.472 583.066 631.628C578.483 625.143 574.389 617.974 569.666 611.692C563.665 604.041 557.488 596.508 550.789 590.125C544.347 584.654 537.659 579.802 531.239 574.264C528.638 572.04 526.066 569.698 523.272 568.024C531.08 567.551 538.893 567.728 546.705 567.652C552.375 567.568 558.041 567.137 563.711 567.035C567.109 566.968 570.488 566.528 573.864 566.071C574.094 566.207 574.324 566.334 574.553 566.46C575.243 566.866 575.961 567.399 576.721 567.154C577.434 566.951 577.852 566.215 578.011 565.361C578.595 565.04 579.072 564.457 579.201 563.467C579.378 561.633 578.112 560.635 577.24 559.646C573.97 556.011 570.807 552.147 567.086 549.467C563.886 547.032 560.825 544.2 557.555 541.959C556.632 541.393 555.71 540.826 554.789 540.251C557.143 540.192 559.497 540.167 561.848 540.336C571.143 539.499 580.35 537.309 589.481 534.722C599.443 532.236 609.451 530.165 619.236 526.428C631.76 522.302 644.267 517.931 656.573 512.605C665.963 508.758 675.341 504.785 684.325 499.23C685.951 498.258 688.184 496.195 687.353 493.27C686.77 491.528 685.409 490.835 684.331 489.837C678.799 485.365 672.749 482.38 666.77 479.387C658.399 475.752 649.881 472.734 641.357 469.944C623.407 465.065 604.998 463.451 586.765 465.125C569.072 466.731 551.447 470.248 534.168 475.963C526.763 478.838 519.363 481.763 512.036 485.026C506.419 487.613 500.896 490.598 495.392 493.633C499.513 489.761 503.593 485.804 507.645 481.78C518.173 471.499 529.03 461.853 538.959 450.371C545.771 442.762 552.354 434.739 558.763 426.445C566.002 417.526 573.187 408.521 580.138 399.137C589.375 386.709 597.664 372.936 605.534 358.724C613.734 344.25 621.746 329.573 629.369 314.456C638.594 296.888 647.377 278.829 655.666 260.314C664.42 240.809 672.608 220.797 681.486 201.411C684.973 194.25 687.801 186.514 690.852 178.964C693.809 172.057 695.83 164.482 697.503 156.771C698.357 153.085 699.482 149.534 700.702 146.076C700.943 145.112 701.627 143.996 701.562 142.948C701.609 142.923 701.656 142.906 701.703 142.881C702.104 142.72 702.546 142.246 702.357 141.57Z" fill="white" fill-opacity="0.08"/>
</svg>
