<svg width="258" height="46" viewBox="0 0 258 46" fill="none" xmlns="http://www.w3.org/2000/svg">
<path fill-rule="evenodd" clip-rule="evenodd" d="M30.5428 20.0281C30.6248 13.4256 28.5196 7.43769 24.5391 2.07337L23 -3.8147e-06L21.4609 2.07337C17.4817 7.43769 15.3765 13.4256 15.4585 20.0281C12.1031 17.2968 7.90548 15.5737 3.20551 14.6308L0.436574 14.0745L0.9377 16.8818C1.76626 21.5238 3.43144 25.9508 6.38681 29.6186C4.98408 30.1826 3.59749 30.9512 2.23256 31.9242L0 33.5139L2.23256 35.1022C5.37394 37.3387 8.87928 38.5773 12.6415 38.5104C11.8691 39.8292 11.3072 41.3455 10.9708 43.064L10.3979 46L13.2849 45.3361C17.9318 44.2678 21.4737 41.4142 23 36.8473C24.5263 41.4142 28.0682 44.2678 32.7151 45.3361L35.6033 46L35.0292 43.064C34.6937 41.3455 34.1314 39.8292 33.3584 38.5104C37.1207 38.5773 40.6269 37.3387 43.7679 35.1022L46 33.5139L43.7687 31.9242C42.4038 30.9512 41.0172 30.1826 39.6132 29.6186C42.5686 25.9508 44.2337 21.5238 45.0636 16.8818L45.5634 14.0745L42.7945 14.6308C38.0958 15.5737 33.8969 17.2968 30.5428 20.0281ZM27.1296 10.8814C28.3243 14.2595 28.8016 17.7985 28.5604 21.5007C27.8614 22.3599 27.2192 23.226 26.6374 24.0981C24.1594 19.6492 24.6389 15.4127 27.1296 10.8814ZM24.5161 27.8495C24.8164 27.204 25.148 26.5607 25.512 25.9208C21.8487 20.1466 22.5804 14.5848 26.2301 8.66215C25.9269 7.99907 25.5948 7.34328 25.236 6.69436C20.4676 13.9149 19.5686 20.8264 24.5161 27.8495ZM30.1861 28.7512C30.3096 28.7216 30.4349 28.6937 30.5585 28.6675L30.1861 28.7512ZM29.2484 29.0062C29.3095 28.9881 29.3711 28.9697 29.4323 28.9512L29.2484 29.0062ZM42.7299 18.6316C42.8947 17.9513 43.0412 17.2543 43.1699 16.5376C33.9823 18.3809 28.1365 23.0539 25.6335 30.5547C26.468 30.0941 27.2986 29.707 28.1264 29.3911C30.8201 23.1573 35.876 19.832 42.7299 18.6316ZM35.3519 28.4654C36.1202 28.5663 36.8854 28.7319 37.6469 28.9602C38.6381 27.8173 39.51 26.5551 40.2621 25.1719C38.306 25.8993 36.6625 26.9641 35.3519 28.4654ZM41.3773 22.8264C37.8096 23.7659 34.9905 25.5075 33.0174 28.3585C32.2025 28.3894 31.3841 28.4916 30.5632 28.6663L30.5963 28.6594C33.0242 24.2461 36.967 21.7698 42.1558 20.6852C41.9218 21.4238 41.6614 22.1371 41.3773 22.8264ZM30.0459 34.8151C30.7382 35.3078 31.3726 35.8606 31.9464 36.4705C34.37 36.7529 36.7173 36.443 38.9868 35.5387C36.0509 34.4027 33.0867 34.1087 30.0459 34.8151ZM41.2308 34.4383C36.8294 32.3216 32.3502 31.8709 27.7446 33.4932C27.1181 33.207 26.4578 32.9568 25.7609 32.7409C31.5646 29.3637 37.198 29.6208 42.6607 33.5126C42.1876 33.849 41.7115 34.1581 41.2308 34.4383ZM24.8015 36.452C25.6904 38.7932 27.1296 40.5872 29.1163 41.8279C28.1786 39.8704 26.8909 38.1752 25.1994 36.7713C25.0686 36.6636 24.9357 36.5576 24.8015 36.452ZM31.644 43.0155C30.6702 40.2013 29.1605 37.7893 27.0328 35.8366C26.6612 35.4954 26.2701 35.1679 25.8611 34.8555C29.8756 36.2868 32.3035 39.149 33.141 43.4408C32.6216 43.3211 32.1218 43.179 31.644 43.0155ZM3.27006 18.6316C10.1253 19.832 15.1812 23.1573 17.8736 29.3911C18.7014 29.707 19.5333 30.0941 20.3665 30.5547C17.8635 23.0539 12.019 18.3809 2.83136 16.5376C2.95877 17.2543 3.10528 17.9513 3.27006 18.6316ZM10.6494 28.4654C9.87983 28.5663 9.11455 28.7319 8.35309 28.9602C7.36316 27.8173 6.49128 26.5551 5.73789 25.1719C7.69399 25.8993 9.33751 26.9641 10.6494 28.4654ZM4.62268 22.8264C8.19087 23.7659 11.0095 25.5075 12.9838 28.3585C13.7988 28.3894 14.6159 28.4916 15.4368 28.6663L15.4037 28.6594C12.977 24.2461 9.03386 21.7698 3.84423 20.6852C4.07823 21.4238 4.33856 22.1371 4.62268 22.8264ZM15.9541 34.8151C15.2618 35.3078 14.6286 35.8606 14.0545 36.4705C11.63 36.7529 9.28315 36.443 7.01407 35.5387C9.94905 34.4027 12.9146 34.1087 15.9541 34.8151ZM4.76919 34.4383C9.17061 32.3216 13.6497 31.8709 18.2559 33.4932C18.8818 33.207 19.5422 32.9568 20.2391 32.7409C14.4367 29.3637 8.80326 29.6208 3.33928 33.5126C3.81323 33.849 4.28973 34.1581 4.76919 34.4383ZM21.1993 36.452C20.3096 38.7932 18.8717 40.585 16.885 41.8279C17.8227 39.8704 19.1103 38.1752 20.8018 36.7713C20.9314 36.6636 21.0643 36.5576 21.1993 36.452ZM14.3568 43.0155C15.3298 40.2013 16.8395 37.7893 18.9685 35.8366C19.3388 35.4954 19.7299 35.1679 20.1402 34.8555C16.1244 36.2868 13.6977 39.149 12.8577 43.4408C13.3792 43.3211 13.8782 43.179 14.3568 43.0155ZM24.1547 4.90124C18.2886 13.3784 17.3075 21.6732 23.6706 29.9023C23.4081 30.6306 23.1852 31.3624 23 32.0976C22.0886 28.4628 20.2345 24.9307 17.4396 21.5007C17.0111 14.8994 18.8649 8.81236 23 3.24031C23.4081 3.78838 23.7925 4.34202 24.1547 4.90124Z" fill="#FFFBF4"/>
<path d="M58.506 31L63.75 15.82H68.005L73.249 31H70.075L66.05 18.143H65.728L61.657 31H58.506ZM61.289 27.872V25.825H70.857V27.872H61.289ZM76.9258 31L72.8088 18.994H76.0288L78.8118 28.677H79.1568L81.9398 18.994H85.0678L80.9278 31H76.9258ZM89.4814 31.299C88.8221 31.299 88.2318 31.1763 87.7104 30.931C87.1891 30.6703 86.7751 30.287 86.4684 29.781C86.1771 29.275 86.0314 28.6463 86.0314 27.895C86.0314 27.2663 86.1464 26.7297 86.3764 26.285C86.6218 25.8403 86.9821 25.48 87.4574 25.204C87.9328 24.9127 88.5231 24.675 89.2284 24.491C89.9338 24.2917 90.7618 24.123 91.7124 23.985C92.2338 23.9083 92.6554 23.8317 92.9774 23.755C93.3148 23.6783 93.5601 23.5633 93.7134 23.41C93.8668 23.2413 93.9434 22.996 93.9434 22.674C93.9434 22.1987 93.7748 21.7923 93.4374 21.455C93.1154 21.1023 92.5864 20.926 91.8504 20.926C91.4058 20.926 90.9764 21.0027 90.5624 21.156C90.1638 21.3093 89.8188 21.5547 89.5274 21.892C89.2361 22.214 89.0368 22.6433 88.9294 23.18L86.3304 22.375C86.4991 21.7617 86.7444 21.2327 87.0664 20.788C87.3884 20.328 87.7871 19.937 88.2624 19.615C88.7378 19.293 89.2821 19.0553 89.8954 18.902C90.5088 18.7487 91.1834 18.672 91.9194 18.672C93.0388 18.672 93.9588 18.856 94.6794 19.224C95.4001 19.5767 95.9368 20.1363 96.2894 20.903C96.6421 21.6543 96.8184 22.628 96.8184 23.824V26.078C96.8184 26.5993 96.8261 27.1437 96.8414 27.711C96.8721 28.263 96.9028 28.8227 96.9334 29.39C96.9794 29.942 97.0331 30.4787 97.0944 31H94.4954C94.4341 30.5707 94.3804 30.1107 94.3344 29.62C94.2884 29.1293 94.2501 28.631 94.2194 28.125H93.8514C93.6368 28.7077 93.3301 29.2443 92.9314 29.735C92.5328 30.2103 92.0421 30.5937 91.4594 30.885C90.8921 31.161 90.2328 31.299 89.4814 31.299ZM90.6314 29.16C90.9381 29.16 91.2448 29.1063 91.5514 28.999C91.8734 28.8917 92.1878 28.7307 92.4944 28.516C92.8011 28.3013 93.0848 28.0407 93.3454 27.734C93.6061 27.412 93.8284 27.0363 94.0124 26.607L93.9664 24.56L94.5184 24.652C94.2578 24.8667 93.9358 25.0353 93.5524 25.158C93.1691 25.2807 92.7628 25.3727 92.3334 25.434C91.9194 25.4953 91.4978 25.572 91.0684 25.664C90.6544 25.7407 90.2788 25.848 89.9414 25.986C89.6041 26.1087 89.3358 26.2927 89.1364 26.538C88.9371 26.768 88.8374 27.09 88.8374 27.504C88.8374 28.0253 89.0061 28.4317 89.3434 28.723C89.6808 29.0143 90.1101 29.16 90.6314 29.16ZM104.296 31.299C103.284 31.299 102.403 31.0383 101.651 30.517C100.915 29.9957 100.348 29.2673 99.9493 28.332C99.5506 27.3813 99.3513 26.262 99.3513 24.974C99.3513 23.7627 99.5353 22.6893 99.9033 21.754C100.271 20.8033 100.808 20.0597 101.513 19.523C102.234 18.971 103.123 18.695 104.181 18.695C104.994 18.695 105.661 18.856 106.182 19.178C106.719 19.4847 107.156 19.9217 107.493 20.489C107.831 21.041 108.099 21.6927 108.298 22.444H108.781C108.689 21.9687 108.605 21.4933 108.528 21.018C108.452 20.5427 108.383 20.0903 108.321 19.661C108.275 19.2163 108.252 18.8177 108.252 18.465V14.67H111.173V25.089V31H108.712L108.758 27.596H108.321C108.153 28.3933 107.892 29.068 107.539 29.62C107.187 30.172 106.742 30.5937 106.205 30.885C105.684 31.161 105.048 31.299 104.296 31.299ZM105.216 28.907C105.722 28.907 106.167 28.792 106.55 28.562C106.934 28.3167 107.248 28.01 107.493 27.642C107.754 27.274 107.946 26.8753 108.068 26.446C108.206 26.0013 108.275 25.5873 108.275 25.204V24.813C108.275 24.5217 108.229 24.2073 108.137 23.87C108.061 23.5327 107.938 23.203 107.769 22.881C107.616 22.5437 107.409 22.2447 107.148 21.984C106.903 21.708 106.612 21.4933 106.274 21.34C105.952 21.1713 105.592 21.087 105.193 21.087C104.595 21.087 104.089 21.2557 103.675 21.593C103.261 21.9303 102.939 22.3903 102.709 22.973C102.495 23.5557 102.387 24.238 102.387 25.02C102.387 25.802 102.502 26.4843 102.732 27.067C102.962 27.6497 103.284 28.102 103.698 28.424C104.128 28.746 104.634 28.907 105.216 28.907ZM117.221 31.299C116.561 31.299 115.971 31.1763 115.45 30.931C114.928 30.6703 114.514 30.287 114.208 29.781C113.916 29.275 113.771 28.6463 113.771 27.895C113.771 27.2663 113.886 26.7297 114.116 26.285C114.361 25.8403 114.721 25.48 115.197 25.204C115.672 24.9127 116.262 24.675 116.968 24.491C117.673 24.2917 118.501 24.123 119.452 23.985C119.973 23.9083 120.395 23.8317 120.717 23.755C121.054 23.6783 121.299 23.5633 121.453 23.41C121.606 23.2413 121.683 22.996 121.683 22.674C121.683 22.1987 121.514 21.7923 121.177 21.455C120.855 21.1023 120.326 20.926 119.59 20.926C119.145 20.926 118.716 21.0027 118.302 21.156C117.903 21.3093 117.558 21.5547 117.267 21.892C116.975 22.214 116.776 22.6433 116.669 23.18L114.07 22.375C114.238 21.7617 114.484 21.2327 114.806 20.788C115.128 20.328 115.526 19.937 116.002 19.615C116.477 19.293 117.021 19.0553 117.635 18.902C118.248 18.7487 118.923 18.672 119.659 18.672C120.778 18.672 121.698 18.856 122.419 19.224C123.139 19.5767 123.676 20.1363 124.029 20.903C124.381 21.6543 124.558 22.628 124.558 23.824V26.078C124.558 26.5993 124.565 27.1437 124.581 27.711C124.611 28.263 124.642 28.8227 124.673 29.39C124.719 29.942 124.772 30.4787 124.834 31H122.235C122.173 30.5707 122.12 30.1107 122.074 29.62C122.028 29.1293 121.989 28.631 121.959 28.125H121.591C121.376 28.7077 121.069 29.2443 120.671 29.735C120.272 30.2103 119.781 30.5937 119.199 30.885C118.631 31.161 117.972 31.299 117.221 31.299ZM118.371 29.16C118.677 29.16 118.984 29.1063 119.291 28.999C119.613 28.8917 119.927 28.7307 120.234 28.516C120.54 28.3013 120.824 28.0407 121.085 27.734C121.345 27.412 121.568 27.0363 121.752 26.607L121.706 24.56L122.258 24.652C121.997 24.8667 121.675 25.0353 121.292 25.158C120.908 25.2807 120.502 25.3727 120.073 25.434C119.659 25.4953 119.237 25.572 118.808 25.664C118.394 25.7407 118.018 25.848 117.681 25.986C117.343 26.1087 117.075 26.2927 116.876 26.538C116.676 26.768 116.577 27.09 116.577 27.504C116.577 28.0253 116.745 28.4317 117.083 28.723C117.42 29.0143 117.849 29.16 118.371 29.16ZM134.757 31V28.608H139.196C140.116 28.608 140.875 28.401 141.473 27.987C142.086 27.573 142.539 26.9827 142.83 26.216C143.137 25.4493 143.29 24.5293 143.29 23.456C143.29 22.5513 143.19 21.7693 142.991 21.11C142.807 20.4507 142.523 19.914 142.14 19.5C141.757 19.0707 141.274 18.7487 140.691 18.534C140.108 18.3193 139.426 18.212 138.644 18.212H134.757V15.82H138.552C140.346 15.82 141.81 16.119 142.945 16.717C144.095 17.315 144.938 18.1737 145.475 19.293C146.027 20.397 146.303 21.731 146.303 23.295C146.303 24.399 146.173 25.3803 145.912 26.239C145.651 27.0823 145.299 27.8107 144.854 28.424C144.409 29.022 143.888 29.5127 143.29 29.896C142.692 30.2793 142.048 30.563 141.358 30.747C140.683 30.9157 139.986 31 139.265 31H134.757ZM133.331 31V15.82H136.229V31H133.331ZM149.162 31V18.971H152.06V31H149.162ZM150.611 17.085C150.029 17.085 149.576 16.9623 149.254 16.717C148.948 16.4563 148.794 16.0883 148.794 15.613C148.794 15.1377 148.948 14.7773 149.254 14.532C149.576 14.2713 150.029 14.141 150.611 14.141C151.225 14.141 151.685 14.2637 151.991 14.509C152.298 14.7543 152.451 15.1223 152.451 15.613C152.451 16.0883 152.29 16.4563 151.968 16.717C151.662 16.9623 151.209 17.085 150.611 17.085ZM159.986 31.299C159.173 31.299 158.437 31.2147 157.778 31.046C157.134 30.8927 156.582 30.6703 156.122 30.379C155.662 30.0723 155.294 29.712 155.018 29.298C154.742 28.8687 154.573 28.3933 154.512 27.872L156.789 27.021C156.819 27.4197 156.973 27.78 157.249 28.102C157.525 28.4087 157.908 28.654 158.399 28.838C158.889 29.022 159.48 29.114 160.17 29.114C160.936 29.114 161.527 28.999 161.941 28.769C162.37 28.5237 162.585 28.1787 162.585 27.734C162.585 27.412 162.47 27.159 162.24 26.975C162.01 26.7757 161.672 26.6147 161.228 26.492C160.798 26.354 160.277 26.2237 159.664 26.101C159.096 25.9783 158.521 25.8403 157.939 25.687C157.371 25.5183 156.842 25.3037 156.352 25.043C155.876 24.767 155.485 24.4143 155.179 23.985C154.887 23.5403 154.742 22.9807 154.742 22.306C154.742 21.57 154.933 20.9337 155.317 20.397C155.715 19.8603 156.283 19.4387 157.019 19.132C157.77 18.8253 158.675 18.672 159.733 18.672C160.729 18.672 161.588 18.81 162.309 19.086C163.045 19.362 163.643 19.7607 164.103 20.282C164.563 20.788 164.854 21.3937 164.977 22.099L162.585 22.858C162.539 22.4287 162.393 22.0683 162.148 21.777C161.902 21.4703 161.573 21.2403 161.159 21.087C160.745 20.9337 160.262 20.857 159.71 20.857C159.004 20.857 158.452 20.9797 158.054 21.225C157.655 21.4703 157.456 21.8 157.456 22.214C157.456 22.5513 157.578 22.8197 157.824 23.019C158.084 23.2183 158.437 23.3793 158.882 23.502C159.342 23.6247 159.863 23.7473 160.446 23.87C161.059 23.9927 161.649 24.1383 162.217 24.307C162.799 24.4603 163.321 24.6673 163.781 24.928C164.241 25.1887 164.609 25.5337 164.885 25.963C165.161 26.377 165.299 26.9137 165.299 27.573C165.299 28.3703 165.084 29.0527 164.655 29.62C164.225 30.172 163.612 30.5937 162.815 30.885C162.033 31.161 161.09 31.299 159.986 31.299ZM167.737 34.818V25.066V18.971H170.175L170.152 22.237L170.543 22.26C170.697 21.4933 170.942 20.8417 171.279 20.305C171.632 19.7683 172.077 19.362 172.613 19.086C173.15 18.81 173.786 18.672 174.522 18.672C175.596 18.672 176.508 18.9403 177.259 19.477C178.011 19.9983 178.578 20.742 178.961 21.708C179.36 22.6587 179.559 23.7703 179.559 25.043C179.559 26.239 179.375 27.3123 179.007 28.263C178.655 29.1983 178.11 29.942 177.374 30.494C176.654 31.0307 175.757 31.299 174.683 31.299C173.901 31.299 173.242 31.1457 172.705 30.839C172.169 30.5323 171.732 30.1107 171.394 29.574C171.057 29.0373 170.781 28.4163 170.566 27.711H170.152C170.244 28.125 170.321 28.5543 170.382 28.999C170.459 29.4283 170.52 29.8577 170.566 30.287C170.612 30.701 170.635 31.0997 170.635 31.483V34.818H167.737ZM173.74 28.93C174.338 28.93 174.844 28.769 175.258 28.447C175.672 28.1097 175.987 27.6497 176.201 27.067C176.416 26.469 176.523 25.7867 176.523 25.02C176.523 24.2227 176.408 23.5327 176.178 22.95C175.964 22.3673 175.642 21.915 175.212 21.593C174.783 21.271 174.277 21.11 173.694 21.11C173.188 21.11 172.744 21.225 172.36 21.455C171.977 21.685 171.655 21.9917 171.394 22.375C171.134 22.743 170.942 23.1417 170.819 23.571C170.697 24.0003 170.635 24.422 170.635 24.836V25.227C170.635 25.5337 170.674 25.8557 170.75 26.193C170.842 26.515 170.973 26.8447 171.141 27.182C171.31 27.504 171.517 27.803 171.762 28.079C172.008 28.3397 172.299 28.5467 172.636 28.7C172.974 28.8533 173.342 28.93 173.74 28.93ZM187.63 31.299C186.664 31.299 185.798 31.161 185.031 30.885C184.28 30.609 183.644 30.2103 183.122 29.689C182.601 29.1523 182.202 28.5083 181.926 27.757C181.65 27.0057 181.512 26.1547 181.512 25.204C181.512 24.2533 181.643 23.3793 181.903 22.582C182.179 21.7847 182.57 21.0947 183.076 20.512C183.582 19.9293 184.196 19.477 184.916 19.155C185.652 18.833 186.488 18.672 187.423 18.672C188.297 18.672 189.079 18.8177 189.769 19.109C190.459 19.4003 191.042 19.8373 191.517 20.42C191.993 20.9873 192.345 21.7003 192.575 22.559C192.805 23.4023 192.882 24.3837 192.805 25.503L183.398 25.572V23.893L191.126 23.824L190.114 24.767C190.206 23.893 190.137 23.18 189.907 22.628C189.677 22.0607 189.348 21.6467 188.918 21.386C188.489 21.11 187.998 20.972 187.446 20.972C186.818 20.972 186.266 21.1407 185.79 21.478C185.315 21.8 184.947 22.2753 184.686 22.904C184.441 23.5173 184.318 24.2687 184.318 25.158C184.318 26.492 184.61 27.4887 185.192 28.148C185.79 28.8073 186.603 29.137 187.63 29.137C188.09 29.137 188.474 29.0833 188.78 28.976C189.102 28.8533 189.371 28.7 189.585 28.516C189.8 28.3167 189.969 28.0943 190.091 27.849C190.229 27.6037 190.337 27.343 190.413 27.067L192.943 27.642C192.821 28.2093 192.621 28.7153 192.345 29.16C192.069 29.6047 191.709 29.988 191.264 30.31C190.835 30.632 190.321 30.8773 189.723 31.046C189.125 31.2147 188.428 31.299 187.63 31.299ZM195.454 31V23.663V18.971H197.869L197.8 22.651H198.214C198.429 21.7463 198.713 21.0027 199.065 20.42C199.433 19.8373 199.901 19.4003 200.468 19.109C201.036 18.8177 201.695 18.672 202.446 18.672C203.811 18.672 204.846 19.155 205.551 20.121C206.272 21.087 206.632 22.582 206.632 24.606V31H203.711V24.905C203.711 23.6017 203.512 22.651 203.113 22.053C202.73 21.4397 202.155 21.133 201.388 21.133C200.744 21.133 200.2 21.34 199.755 21.754C199.311 22.1527 198.966 22.6893 198.72 23.364C198.49 24.0233 198.368 24.7517 198.352 25.549V31H195.454ZM214.364 31.299C213.551 31.299 212.815 31.2147 212.156 31.046C211.512 30.8927 210.96 30.6703 210.5 30.379C210.04 30.0723 209.672 29.712 209.396 29.298C209.12 28.8687 208.951 28.3933 208.89 27.872L211.167 27.021C211.197 27.4197 211.351 27.78 211.627 28.102C211.903 28.4087 212.286 28.654 212.777 28.838C213.267 29.022 213.858 29.114 214.548 29.114C215.314 29.114 215.905 28.999 216.319 28.769C216.748 28.5237 216.963 28.1787 216.963 27.734C216.963 27.412 216.848 27.159 216.618 26.975C216.388 26.7757 216.05 26.6147 215.606 26.492C215.176 26.354 214.655 26.2237 214.042 26.101C213.474 25.9783 212.899 25.8403 212.317 25.687C211.749 25.5183 211.22 25.3037 210.73 25.043C210.254 24.767 209.863 24.4143 209.557 23.985C209.265 23.5403 209.12 22.9807 209.12 22.306C209.12 21.57 209.311 20.9337 209.695 20.397C210.093 19.8603 210.661 19.4387 211.397 19.132C212.148 18.8253 213.053 18.672 214.111 18.672C215.107 18.672 215.966 18.81 216.687 19.086C217.423 19.362 218.021 19.7607 218.481 20.282C218.941 20.788 219.232 21.3937 219.355 22.099L216.963 22.858C216.917 22.4287 216.771 22.0683 216.526 21.777C216.28 21.4703 215.951 21.2403 215.537 21.087C215.123 20.9337 214.64 20.857 214.088 20.857C213.382 20.857 212.83 20.9797 212.432 21.225C212.033 21.4703 211.834 21.8 211.834 22.214C211.834 22.5513 211.956 22.8197 212.202 23.019C212.462 23.2183 212.815 23.3793 213.26 23.502C213.72 23.6247 214.241 23.7473 214.824 23.87C215.437 23.9927 216.027 24.1383 216.595 24.307C217.177 24.4603 217.699 24.6673 218.159 24.928C218.619 25.1887 218.987 25.5337 219.263 25.963C219.539 26.377 219.677 26.9137 219.677 27.573C219.677 28.3703 219.462 29.0527 219.033 29.62C218.603 30.172 217.99 30.5937 217.193 30.885C216.411 31.161 215.468 31.299 214.364 31.299ZM224.966 31.299C224.306 31.299 223.716 31.1763 223.195 30.931C222.673 30.6703 222.259 30.287 221.953 29.781C221.661 29.275 221.516 28.6463 221.516 27.895C221.516 27.2663 221.631 26.7297 221.861 26.285C222.106 25.8403 222.466 25.48 222.942 25.204C223.417 24.9127 224.007 24.675 224.713 24.491C225.418 24.2917 226.246 24.123 227.197 23.985C227.718 23.9083 228.14 23.8317 228.462 23.755C228.799 23.6783 229.044 23.5633 229.198 23.41C229.351 23.2413 229.428 22.996 229.428 22.674C229.428 22.1987 229.259 21.7923 228.922 21.455C228.6 21.1023 228.071 20.926 227.335 20.926C226.89 20.926 226.461 21.0027 226.047 21.156C225.648 21.3093 225.303 21.5547 225.012 21.892C224.72 22.214 224.521 22.6433 224.414 23.18L221.815 22.375C221.983 21.7617 222.229 21.2327 222.551 20.788C222.873 20.328 223.271 19.937 223.747 19.615C224.222 19.293 224.766 19.0553 225.38 18.902C225.993 18.7487 226.668 18.672 227.404 18.672C228.523 18.672 229.443 18.856 230.164 19.224C230.884 19.5767 231.421 20.1363 231.774 20.903C232.126 21.6543 232.303 22.628 232.303 23.824V26.078C232.303 26.5993 232.31 27.1437 232.326 27.711C232.356 28.263 232.387 28.8227 232.418 29.39C232.464 29.942 232.517 30.4787 232.579 31H229.98C229.918 30.5707 229.865 30.1107 229.819 29.62C229.773 29.1293 229.734 28.631 229.704 28.125H229.336C229.121 28.7077 228.814 29.2443 228.416 29.735C228.017 30.2103 227.526 30.5937 226.944 30.885C226.376 31.161 225.717 31.299 224.966 31.299ZM226.116 29.16C226.422 29.16 226.729 29.1063 227.036 28.999C227.358 28.8917 227.672 28.7307 227.979 28.516C228.285 28.3013 228.569 28.0407 228.83 27.734C229.09 27.412 229.313 27.0363 229.497 26.607L229.451 24.56L230.003 24.652C229.742 24.8667 229.42 25.0353 229.037 25.158C228.653 25.2807 228.247 25.3727 227.818 25.434C227.404 25.4953 226.982 25.572 226.553 25.664C226.139 25.7407 225.763 25.848 225.426 25.986C225.088 26.1087 224.82 26.2927 224.621 26.538C224.421 26.768 224.322 27.09 224.322 27.504C224.322 28.0253 224.49 28.4317 224.828 28.723C225.165 29.0143 225.594 29.16 226.116 29.16ZM235.435 31V24.974V18.971H237.873L237.827 23.111H238.241C238.379 22.1297 238.593 21.317 238.885 20.673C239.176 20.0137 239.582 19.523 240.104 19.201C240.625 18.8637 241.269 18.695 242.036 18.695C242.189 18.695 242.35 18.7027 242.519 18.718C242.703 18.7333 242.902 18.7717 243.117 18.833L243.002 21.892C242.756 21.8 242.503 21.7387 242.243 21.708C241.997 21.662 241.767 21.639 241.553 21.639C240.955 21.639 240.433 21.7923 239.989 22.099C239.559 22.4057 239.207 22.8427 238.931 23.41C238.67 23.962 238.471 24.6213 238.333 25.388V31H235.435ZM249.577 35.117C248.964 35.117 248.343 35.0557 247.714 34.933C247.086 34.8103 246.495 34.6187 245.943 34.358C245.407 34.1127 244.954 33.7907 244.586 33.392L245.575 31C246.02 31.506 246.595 31.8893 247.3 32.15C248.006 32.4107 248.719 32.541 249.439 32.541C250.283 32.541 250.98 32.3647 251.532 32.012C252.084 31.6747 252.506 31.1457 252.797 30.425C253.089 29.7043 253.25 28.8073 253.28 27.734L253.441 25.549H252.958C252.805 26.5917 252.552 27.4427 252.199 28.102C251.847 28.746 251.402 29.2213 250.865 29.528C250.344 29.8193 249.731 29.965 249.025 29.965C248.151 29.965 247.415 29.7427 246.817 29.298C246.219 28.8533 245.767 28.194 245.46 27.32C245.169 26.446 245.023 25.365 245.023 24.077V18.971H247.944V23.41C247.944 24.8513 248.121 25.9017 248.473 26.561C248.826 27.205 249.363 27.527 250.083 27.527C250.467 27.527 250.819 27.4273 251.141 27.228C251.463 27.0133 251.732 26.7143 251.946 26.331C252.176 25.9323 252.353 25.4417 252.475 24.859C252.613 24.2763 252.69 23.6093 252.705 22.858V18.971H255.626V27.849C255.626 28.815 255.542 29.689 255.373 30.471C255.22 31.2377 254.982 31.9047 254.66 32.472C254.338 33.0547 253.932 33.5453 253.441 33.944C252.966 34.3427 252.406 34.634 251.762 34.818C251.118 35.0173 250.39 35.117 249.577 35.117Z" fill="#FFFBF4"/>
</svg>
